<?xml version="1.0" encoding="UTF-8" standalone="no"?>
<!DOCTYPE svg PUBLIC "-//W3C//DTD SVG 1.1//EN"
 "http://www.w3.org/Graphics/SVG/1.1/DTD/svg11.dtd">
<!-- Generated by graphviz version 2.40.1 (20161225.0304)
 -->
<!-- Title: %0 Pages: 1 -->
<svg width="706pt" height="1031pt"
 viewBox="0.00 0.00 706.09 1030.60" xmlns="http://www.w3.org/2000/svg" xmlns:xlink="http://www.w3.org/1999/xlink">
<g id="graph0" class="graph" transform="scale(1 1) rotate(0) translate(4 1026.6)">
<title>%0</title>
<polygon fill="#ffffff" stroke="transparent" points="-4,4 -4,-1026.6 702.0895,-1026.6 702.0895,4 -4,4"/>
<!-- startSignalingIfReady -->
<g id="node1" class="node">
<title>startSignalingIfReady</title>
<polygon fill="none" stroke="#000000" points="193.2107,-972.5 193.2107,-1022.1 374.4401,-1022.1 374.4401,-972.5 193.2107,-972.5"/>
<text text-anchor="middle" x="283.8254" y="-1005.5" font-family="Times,serif" font-size="14.00" fill="#000000">ARDAppClient</text>
<polyline fill="none" stroke="#000000" points="193.2107,-997.3 374.4401,-997.3 "/>
<text text-anchor="middle" x="283.8254" y="-980.7" font-family="Times,serif" font-size="14.00" fill="#000000">&#45; (void)startSignalingIfReady</text>
</g>
<!-- drainMessageQueueIfReady -->
<g id="node2" class="node">
<title>drainMessageQueueIfReady</title>
<polygon fill="none" stroke="#000000" points="174.9561,-869.1 174.9561,-918.7 392.6947,-918.7 392.6947,-869.1 174.9561,-869.1"/>
<text text-anchor="middle" x="283.8254" y="-902.1" font-family="Times,serif" font-size="14.00" fill="#000000">ARDAppClient</text>
<polyline fill="none" stroke="#000000" points="174.9561,-893.9 392.6947,-893.9 "/>
<text text-anchor="middle" x="283.8254" y="-877.3" font-family="Times,serif" font-size="14.00" fill="#000000">&#45; (void)drainMessageQueueIfReady</text>
</g>
<!-- startSignalingIfReady&#45;&gt;drainMessageQueueIfReady -->
<g id="edge1" class="edge">
<title>startSignalingIfReady&#45;&gt;drainMessageQueueIfReady</title>
<path fill="none" stroke="#000000" d="M283.8254,-972.2697C283.8254,-959.4102 283.8254,-943.5191 283.8254,-929.4152"/>
<polygon fill="#000000" stroke="#000000" points="287.3255,-929.0581 283.8254,-919.0581 280.3255,-929.0582 287.3255,-929.0581"/>
<text text-anchor="middle" x="328.596" y="-941.4" font-family="Times,serif" font-size="14.00" fill="#000000">isInitiator = NO</text>
</g>
<!-- processSignalingMessage -->
<g id="node3" class="node">
<title>processSignalingMessage</title>
<polygon fill="none" stroke="#000000" points="180.3811,-781.5 180.3811,-831.1 387.2697,-831.1 387.2697,-781.5 180.3811,-781.5"/>
<text text-anchor="middle" x="283.8254" y="-814.5" font-family="Times,serif" font-size="14.00" fill="#000000">ARDAppClient</text>
<polyline fill="none" stroke="#000000" points="180.3811,-806.3 387.2697,-806.3 "/>
<text text-anchor="middle" x="283.8254" y="-789.7" font-family="Times,serif" font-size="14.00" fill="#000000">&#45; (void)processSignalingMessage:</text>
</g>
<!-- drainMessageQueueIfReady&#45;&gt;processSignalingMessage -->
<g id="edge2" class="edge">
<title>drainMessageQueueIfReady&#45;&gt;processSignalingMessage</title>
<path fill="none" stroke="#000000" d="M283.8254,-869.0317C283.8254,-860.4318 283.8254,-850.6262 283.8254,-841.3639"/>
<polygon fill="#000000" stroke="#000000" points="287.3255,-841.2305 283.8254,-831.2305 280.3255,-841.2305 287.3255,-841.2305"/>
</g>
<!-- setRemoteDescription -->
<g id="node4" class="node">
<title>setRemoteDescription</title>
<polygon fill="none" stroke="#000000" points="134.5045,-678.1 134.5045,-727.7 433.1463,-727.7 433.1463,-678.1 134.5045,-678.1"/>
<text text-anchor="middle" x="283.8254" y="-711.1" font-family="Times,serif" font-size="14.00" fill="#000000">RTCPeerConnection</text>
<polyline fill="none" stroke="#000000" points="134.5045,-702.9 433.1463,-702.9 "/>
<text text-anchor="middle" x="283.8254" y="-686.3" font-family="Times,serif" font-size="14.00" fill="#000000">&#45; (void)setRemoteDescription:completionHandler:</text>
</g>
<!-- processSignalingMessage&#45;&gt;setRemoteDescription -->
<g id="edge3" class="edge">
<title>processSignalingMessage&#45;&gt;setRemoteDescription</title>
<path fill="none" stroke="#000000" d="M283.8254,-781.2697C283.8254,-768.4102 283.8254,-752.5191 283.8254,-738.4152"/>
<polygon fill="#000000" stroke="#000000" points="287.3255,-738.0581 283.8254,-728.0581 280.3255,-738.0582 287.3255,-738.0581"/>
<text text-anchor="middle" x="402.4502" y="-750.4" font-family="Times,serif" font-size="14.00" fill="#000000">case = kARDSignalingMessageTypeOffer</text>
</g>
<!-- didSetSessionDescriptionWithError -->
<g id="node5" class="node">
<title>didSetSessionDescriptionWithError</title>
<polygon fill="none" stroke="#000000" points="105.731,-574.7 105.731,-624.3 461.9198,-624.3 461.9198,-574.7 105.731,-574.7"/>
<text text-anchor="middle" x="283.8254" y="-607.7" font-family="Times,serif" font-size="14.00" fill="#000000">ARDAppClient</text>
<polyline fill="none" stroke="#000000" points="105.731,-599.5 461.9198,-599.5 "/>
<text text-anchor="middle" x="283.8254" y="-582.9" font-family="Times,serif" font-size="14.00" fill="#000000">&#45; (void)peerConnection:didSetSessionDescriptionWithError:</text>
</g>
<!-- setRemoteDescription&#45;&gt;didSetSessionDescriptionWithError -->
<g id="edge4" class="edge">
<title>setRemoteDescription&#45;&gt;didSetSessionDescriptionWithError</title>
<path fill="none" stroke="#000000" d="M283.8254,-677.8697C283.8254,-665.0102 283.8254,-649.1191 283.8254,-635.0152"/>
<polygon fill="#000000" stroke="#000000" points="287.3255,-634.6581 283.8254,-624.6581 280.3255,-634.6582 287.3255,-634.6581"/>
<text text-anchor="middle" x="307.1452" y="-647" font-family="Times,serif" font-size="14.00" fill="#000000">callback</text>
</g>
<!-- answerForConstraints -->
<g id="node6" class="node">
<title>answerForConstraints</title>
<polygon fill="none" stroke="#000000" points="135.2808,-471.3 135.2808,-520.9 432.37,-520.9 432.37,-471.3 135.2808,-471.3"/>
<text text-anchor="middle" x="283.8254" y="-504.3" font-family="Times,serif" font-size="14.00" fill="#000000">ARDAppClient</text>
<polyline fill="none" stroke="#000000" points="135.2808,-496.1 432.37,-496.1 "/>
<text text-anchor="middle" x="283.8254" y="-479.5" font-family="Times,serif" font-size="14.00" fill="#000000">&#45; (void)answerForConstraints:completionHandler:</text>
</g>
<!-- didSetSessionDescriptionWithError&#45;&gt;answerForConstraints -->
<g id="edge5" class="edge">
<title>didSetSessionDescriptionWithError&#45;&gt;answerForConstraints</title>
<path fill="none" stroke="#000000" d="M283.8254,-574.4697C283.8254,-561.6102 283.8254,-545.7191 283.8254,-531.6152"/>
<polygon fill="#000000" stroke="#000000" points="287.3255,-531.2581 283.8254,-521.2581 280.3255,-531.2582 287.3255,-531.2581"/>
<text text-anchor="middle" x="403.3028" y="-543.6" font-family="Times,serif" font-size="14.00" fill="#000000">isInitiator = NO and localDescription = nil</text>
</g>
<!-- didCreateSessionDescription -->
<g id="node7" class="node">
<title>didCreateSessionDescription</title>
<polygon fill="none" stroke="#000000" points="109.6307,-367.9 109.6307,-417.5 458.0201,-417.5 458.0201,-367.9 109.6307,-367.9"/>
<text text-anchor="middle" x="283.8254" y="-400.9" font-family="Times,serif" font-size="14.00" fill="#000000">ARDAppClient</text>
<polyline fill="none" stroke="#000000" points="109.6307,-392.7 458.0201,-392.7 "/>
<text text-anchor="middle" x="283.8254" y="-376.1" font-family="Times,serif" font-size="14.00" fill="#000000">&#45; (void)peerConnection:didCreateSessionDescription:error:</text>
</g>
<!-- answerForConstraints&#45;&gt;didCreateSessionDescription -->
<g id="edge6" class="edge">
<title>answerForConstraints&#45;&gt;didCreateSessionDescription</title>
<path fill="none" stroke="#000000" d="M283.8254,-471.0697C283.8254,-458.2102 283.8254,-442.3191 283.8254,-428.2152"/>
<polygon fill="#000000" stroke="#000000" points="287.3255,-427.8581 283.8254,-417.8581 280.3255,-427.8582 287.3255,-427.8581"/>
<text text-anchor="middle" x="307.1452" y="-440.2" font-family="Times,serif" font-size="14.00" fill="#000000">callback</text>
</g>
<!-- sendSignalingMessage -->
<g id="node8" class="node">
<title>sendSignalingMessage</title>
<polygon fill="none" stroke="#000000" points="188.541,-280.3 188.541,-329.9 379.1098,-329.9 379.1098,-280.3 188.541,-280.3"/>
<text text-anchor="middle" x="283.8254" y="-313.3" font-family="Times,serif" font-size="14.00" fill="#000000">ARDAppClient</text>
<polyline fill="none" stroke="#000000" points="188.541,-305.1 379.1098,-305.1 "/>
<text text-anchor="middle" x="283.8254" y="-288.5" font-family="Times,serif" font-size="14.00" fill="#000000">&#45; (void)sendSignalingMessage:</text>
</g>
<!-- didCreateSessionDescription&#45;&gt;sendSignalingMessage -->
<g id="edge7" class="edge">
<title>didCreateSessionDescription&#45;&gt;sendSignalingMessage</title>
<path fill="none" stroke="#000000" d="M283.8254,-367.8317C283.8254,-359.2318 283.8254,-349.4262 283.8254,-340.1639"/>
<polygon fill="#000000" stroke="#000000" points="287.3255,-340.0305 283.8254,-330.0305 280.3255,-340.0305 287.3255,-340.0305"/>
</g>
<!-- sendMessage -->
<g id="node9" class="node">
<title>sendMessage</title>
<polygon fill="none" stroke="#000000" points="205.4565,-176.9 205.4565,-226.5 362.1943,-226.5 362.1943,-176.9 205.4565,-176.9"/>
<text text-anchor="middle" x="283.8254" y="-209.9" font-family="Times,serif" font-size="14.00" fill="#000000">ARDWebSocketChannel</text>
<polyline fill="none" stroke="#000000" points="205.4565,-201.7 362.1943,-201.7 "/>
<text text-anchor="middle" x="283.8254" y="-185.1" font-family="Times,serif" font-size="14.00" fill="#000000">&#45; (void)sendMessage:</text>
</g>
<!-- sendSignalingMessage&#45;&gt;sendMessage -->
<g id="edge8" class="edge">
<title>sendSignalingMessage&#45;&gt;sendMessage</title>
<path fill="none" stroke="#000000" d="M283.8254,-280.0697C283.8254,-267.2102 283.8254,-251.3191 283.8254,-237.2152"/>
<polygon fill="#000000" stroke="#000000" points="287.3255,-236.8581 283.8254,-226.8581 280.3255,-236.8582 287.3255,-236.8581"/>
<text text-anchor="middle" x="328.596" y="-249.2" font-family="Times,serif" font-size="14.00" fill="#000000">isInitiator = NO</text>
</g>
<!-- kARDSignalingChannelStateRegistered -->
<g id="node10" class="node">
<title>kARDSignalingChannelStateRegistered</title>
<polygon fill="none" stroke="#000000" points="283.8254,-139.4 49.1519,-121.4 283.8254,-103.4 518.4989,-121.4 283.8254,-139.4"/>
<text text-anchor="middle" x="283.8254" y="-117.2" font-family="Times,serif" font-size="14.00" fill="#000000">kARDSignalingChannelStateRegistered</text>
</g>
<!-- sendMessage&#45;&gt;kARDSignalingChannelStateRegistered -->
<g id="edge9" class="edge">
<title>sendMessage&#45;&gt;kARDSignalingChannelStateRegistered</title>
<path fill="none" stroke="#000000" d="M283.8254,-176.7328C283.8254,-168.1572 283.8254,-158.4979 283.8254,-149.6783"/>
<polygon fill="#000000" stroke="#000000" points="287.3255,-149.4662 283.8254,-139.4662 280.3255,-149.4663 287.3255,-149.4662"/>
</g>
<!-- send -->
<g id="node11" class="node">
<title>send</title>
<polygon fill="none" stroke="#000000" points="0,-.5 0,-50.1 97.6508,-50.1 97.6508,-.5 0,-.5"/>
<text text-anchor="middle" x="48.8254" y="-33.5" font-family="Times,serif" font-size="14.00" fill="#000000">SRWebSocket</text>
<polyline fill="none" stroke="#000000" points="0,-25.3 97.6508,-25.3 "/>
<text text-anchor="middle" x="48.8254" y="-8.7" font-family="Times,serif" font-size="14.00" fill="#000000">&#45; (void)send:</text>
</g>
<!-- kARDSignalingChannelStateRegistered&#45;&gt;send -->
<g id="edge10" class="edge">
<title>kARDSignalingChannelStateRegistered:w&#45;&gt;send</title>
<path fill="none" stroke="#000000" d="M48.8254,-121.4C23.4904,-121.4 28.2114,-87.5871 36.2458,-60.075"/>
<polygon fill="#000000" stroke="#000000" points="39.6589,-60.8872 39.3062,-50.2983 32.9786,-58.796 39.6589,-60.8872"/>
<text text-anchor="middle" x="47.0463" y="-72.8" font-family="Times,serif" font-size="14.00" fill="#000000">YES</text>
</g>
<!-- sendAsyncPostToURL -->
<g id="node12" class="node">
<title>sendAsyncPostToURL</title>
<polygon fill="none" stroke="#000000" points="339.5613,-.5 339.5613,-50.1 698.0895,-50.1 698.0895,-.5 339.5613,-.5"/>
<text text-anchor="middle" x="518.8254" y="-33.5" font-family="Times,serif" font-size="14.00" fill="#000000">NSURLConnection</text>
<polyline fill="none" stroke="#000000" points="339.5613,-25.3 698.0895,-25.3 "/>
<text text-anchor="middle" x="518.8254" y="-8.7" font-family="Times,serif" font-size="14.00" fill="#000000">&#45; (void)sendAsyncPostToURL:withData:completionHandler:</text>
</g>
<!-- kARDSignalingChannelStateRegistered&#45;&gt;sendAsyncPostToURL -->
<g id="edge11" class="edge">
<title>kARDSignalingChannelStateRegistered:e&#45;&gt;sendAsyncPostToURL</title>
<path fill="none" stroke="#000000" d="M518.8254,-121.4C544.1604,-121.4 539.4394,-87.5871 531.405,-60.075"/>
<polygon fill="#000000" stroke="#000000" points="534.6722,-58.796 528.3446,-50.2983 527.9919,-60.8872 534.6722,-58.796"/>
<text text-anchor="middle" x="546.932" y="-72.8" font-family="Times,serif" font-size="14.00" fill="#000000">NO</text>
</g>
</g>
</svg>
