<?xml version="1.0" encoding="UTF-8" standalone="no"?>
<!DOCTYPE svg PUBLIC "-//W3C//DTD SVG 1.1//EN"
 "http://www.w3.org/Graphics/SVG/1.1/DTD/svg11.dtd">
<!-- Generated by graphviz version 2.40.1 (20161225.0304)
 -->
<!-- Title: %0 Pages: 1 -->
<svg width="660pt" height="632pt"
 viewBox="0.00 0.00 660.23 631.60" xmlns="http://www.w3.org/2000/svg" xmlns:xlink="http://www.w3.org/1999/xlink">
<g id="graph0" class="graph" transform="scale(1 1) rotate(0) translate(4 627.6)">
<title>%0</title>
<polygon fill="#ffffff" stroke="transparent" points="-4,4 -4,-627.6 656.2336,-627.6 656.2336,4 -4,4"/>
<!-- title -->
<g id="node1" class="node">
<title>title</title>
<text text-anchor="middle" x="48.0442" y="-594.1" font-family="Times,serif" font-size="14.00" fill="#000000">注册长连接</text>
</g>
<!-- joinRoomWithRoomId -->
<g id="node2" class="node">
<title>joinRoomWithRoomId</title>
<polygon fill="none" stroke="#000000" points="114.3783,-573.5 114.3783,-623.1 487.7101,-623.1 487.7101,-573.5 114.3783,-573.5"/>
<text text-anchor="middle" x="301.0442" y="-606.5" font-family="Times,serif" font-size="14.00" fill="#000000">ARDAppEngineClient</text>
<polyline fill="none" stroke="#000000" points="114.3783,-598.3 487.7101,-598.3 "/>
<text text-anchor="middle" x="301.0442" y="-581.7" font-family="Times,serif" font-size="14.00" fill="#000000">&#45; (void)joinRoomWithRoomId:isLoopback:completionHandler:</text>
</g>
<!-- registerWithColliderIfReady -->
<g id="node3" class="node">
<title>registerWithColliderIfReady</title>
<polygon fill="none" stroke="#000000" points="191.3867,-470.1 191.3867,-519.7 410.7017,-519.7 410.7017,-470.1 191.3867,-470.1"/>
<text text-anchor="middle" x="301.0442" y="-503.1" font-family="Times,serif" font-size="14.00" fill="#000000">ARDAppClient</text>
<polyline fill="none" stroke="#000000" points="191.3867,-494.9 410.7017,-494.9 "/>
<text text-anchor="middle" x="301.0442" y="-478.3" font-family="Times,serif" font-size="14.00" fill="#000000">&#45; (void)registerWithColliderIfReady</text>
</g>
<!-- joinRoomWithRoomId&#45;&gt;registerWithColliderIfReady -->
<g id="edge1" class="edge">
<title>joinRoomWithRoomId&#45;&gt;registerWithColliderIfReady</title>
<path fill="none" stroke="#000000" d="M301.0442,-573.2697C301.0442,-560.4102 301.0442,-544.5191 301.0442,-530.4152"/>
<polygon fill="#000000" stroke="#000000" points="304.5443,-530.0581 301.0442,-520.0581 297.5443,-530.0582 304.5443,-530.0581"/>
<text text-anchor="middle" x="324.364" y="-542.4" font-family="Times,serif" font-size="14.00" fill="#000000">callback</text>
</g>
<!-- initWithURL -->
<g id="node4" class="node">
<title>initWithURL</title>
<polygon fill="none" stroke="#000000" points="25.7254,-382.5 25.7254,-432.1 310.363,-432.1 310.363,-382.5 25.7254,-382.5"/>
<text text-anchor="middle" x="168.0442" y="-415.5" font-family="Times,serif" font-size="14.00" fill="#000000">ARDWebSocketChannel</text>
<polyline fill="none" stroke="#000000" points="25.7254,-407.3 310.363,-407.3 "/>
<text text-anchor="middle" x="168.0442" y="-390.7" font-family="Times,serif" font-size="14.00" fill="#000000">&#45; (instancetype)initWithURL:restURL:delegate:</text>
</g>
<!-- registerWithColliderIfReady&#45;&gt;initWithURL -->
<g id="edge2" class="edge">
<title>registerWithColliderIfReady&#45;&gt;initWithURL</title>
<path fill="none" stroke="#000000" d="M263.2875,-470.0317C248.1247,-460.0447 230.4931,-448.4317 214.5515,-437.9319"/>
<polygon fill="#000000" stroke="#000000" points="216.1718,-434.8081 205.8953,-432.2305 212.3214,-440.6541 216.1718,-434.8081"/>
</g>
<!-- registerForRoomId -->
<g id="node7" class="node">
<title>registerForRoomId</title>
<polygon fill="none" stroke="#000000" points="329.933,-382.5 329.933,-432.1 546.1554,-432.1 546.1554,-382.5 329.933,-382.5"/>
<text text-anchor="middle" x="438.0442" y="-415.5" font-family="Times,serif" font-size="14.00" fill="#000000">ARDWebSocketChannel</text>
<polyline fill="none" stroke="#000000" points="329.933,-407.3 546.1554,-407.3 "/>
<text text-anchor="middle" x="438.0442" y="-390.7" font-family="Times,serif" font-size="14.00" fill="#000000">&#45; (void)registerForRoomId:clientId:</text>
</g>
<!-- registerWithColliderIfReady&#45;&gt;registerForRoomId -->
<g id="edge3" class="edge">
<title>registerWithColliderIfReady&#45;&gt;registerForRoomId</title>
<path fill="none" stroke="#000000" d="M339.9364,-470.0317C355.6999,-459.9523 374.0537,-448.2165 390.5939,-437.6405"/>
<polygon fill="#000000" stroke="#000000" points="392.5152,-440.5663 399.0547,-432.2305 388.7443,-434.6689 392.5152,-440.5663"/>
</g>
<!-- open -->
<g id="node5" class="node">
<title>open</title>
<polygon fill="none" stroke="#000000" points="109.2188,-294.9 109.2188,-344.5 206.8696,-344.5 206.8696,-294.9 109.2188,-294.9"/>
<text text-anchor="middle" x="158.0442" y="-327.9" font-family="Times,serif" font-size="14.00" fill="#000000">SRWebSocket</text>
<polyline fill="none" stroke="#000000" points="109.2188,-319.7 206.8696,-319.7 "/>
<text text-anchor="middle" x="158.0442" y="-303.1" font-family="Times,serif" font-size="14.00" fill="#000000">&#45; (void)open</text>
</g>
<!-- initWithURL&#45;&gt;open -->
<g id="edge4" class="edge">
<title>initWithURL&#45;&gt;open</title>
<path fill="none" stroke="#000000" d="M165.2053,-382.4317C164.2236,-373.8318 163.1043,-364.0262 162.0469,-354.7639"/>
<polygon fill="#000000" stroke="#000000" points="165.5018,-354.169 160.8901,-344.6305 158.547,-354.963 165.5018,-354.169"/>
</g>
<!-- webSocketDidOpen -->
<g id="node6" class="node">
<title>webSocketDidOpen</title>
<polygon fill="none" stroke="#000000" points="104.5417,-191.5 104.5417,-241.1 279.5467,-241.1 279.5467,-191.5 104.5417,-191.5"/>
<text text-anchor="middle" x="192.0442" y="-224.5" font-family="Times,serif" font-size="14.00" fill="#000000">ARDWebSocketChannel</text>
<polyline fill="none" stroke="#000000" points="104.5417,-216.3 279.5467,-216.3 "/>
<text text-anchor="middle" x="192.0442" y="-199.7" font-family="Times,serif" font-size="14.00" fill="#000000">&#45; (void)webSocketDidOpen:</text>
</g>
<!-- open&#45;&gt;webSocketDidOpen -->
<g id="edge5" class="edge">
<title>open:e&#45;&gt;webSocketDidOpen</title>
<path fill="none" stroke="#000000" d="M207.0442,-331.7C240.1002,-331.7 224.7748,-284.5606 209.409,-250.5382"/>
<polygon fill="#000000" stroke="#000000" points="212.5163,-248.9202 205.1141,-241.3401 206.1736,-251.8818 212.5163,-248.9202"/>
<text text-anchor="middle" x="242.364" y="-263.8" font-family="Times,serif" font-size="14.00" fill="#000000">delegate</text>
</g>
<!-- registerWithCollider -->
<g id="node8" class="node">
<title>registerWithCollider</title>
<polygon fill="none" stroke="#000000" points="226.9302,-88.1 226.9302,-137.7 401.1582,-137.7 401.1582,-88.1 226.9302,-88.1"/>
<text text-anchor="middle" x="314.0442" y="-121.1" font-family="Times,serif" font-size="14.00" fill="#000000">ARDWebSocketChannel</text>
<polyline fill="none" stroke="#000000" points="226.9302,-112.9 401.1582,-112.9 "/>
<text text-anchor="middle" x="314.0442" y="-96.3" font-family="Times,serif" font-size="14.00" fill="#000000">&#45; (void)registerWithCollider</text>
</g>
<!-- webSocketDidOpen&#45;&gt;registerWithCollider -->
<g id="edge6" class="edge">
<title>webSocketDidOpen&#45;&gt;registerWithCollider</title>
<path fill="none" stroke="#000000" d="M185.8315,-191.2041C184.4192,-179.5807 185.0311,-166.1704 192.0754,-156.2 196.1308,-150.4601 205.4869,-144.9399 217.3111,-139.8748"/>
<polygon fill="#000000" stroke="#000000" points="218.7962,-143.0507 226.7873,-136.0941 216.2022,-136.549 218.7962,-143.0507"/>
<text text-anchor="middle" x="309.0286" y="-160.4" font-family="Times,serif" font-size="14.00" fill="#000000">roomId.length &gt; 0 and clientId.length &gt; 0</text>
</g>
<!-- registerForRoomId&#45;&gt;registerWithCollider -->
<g id="edge7" class="edge">
<title>registerForRoomId&#45;&gt;registerWithCollider</title>
<path fill="none" stroke="#000000" d="M444.7082,-382.3301C456.1143,-333.6561 473.6548,-224.8544 424.0442,-156.2 420.006,-150.6117 415.1335,-145.7445 409.715,-141.5052"/>
<polygon fill="#000000" stroke="#000000" points="411.6269,-138.5716 401.4194,-135.7327 407.6286,-144.3174 411.6269,-138.5716"/>
<text text-anchor="middle" x="554.6389" y="-263.8" font-family="Times,serif" font-size="14.00" fill="#000000">kARDSignalingChannelStateOpen</text>
</g>
<!-- send -->
<g id="node9" class="node">
<title>send</title>
<polygon fill="none" stroke="#000000" points="265.2188,-.5 265.2188,-50.1 362.8696,-50.1 362.8696,-.5 265.2188,-.5"/>
<text text-anchor="middle" x="314.0442" y="-33.5" font-family="Times,serif" font-size="14.00" fill="#000000">SRWebSocket</text>
<polyline fill="none" stroke="#000000" points="265.2188,-25.3 362.8696,-25.3 "/>
<text text-anchor="middle" x="314.0442" y="-8.7" font-family="Times,serif" font-size="14.00" fill="#000000">&#45; (void)send:</text>
</g>
<!-- registerWithCollider&#45;&gt;send -->
<g id="edge8" class="edge">
<title>registerWithCollider&#45;&gt;send</title>
<path fill="none" stroke="#000000" d="M314.0442,-88.0317C314.0442,-79.4318 314.0442,-69.6262 314.0442,-60.3639"/>
<polygon fill="#000000" stroke="#000000" points="317.5443,-60.2305 314.0442,-50.2305 310.5443,-60.2305 317.5443,-60.2305"/>
</g>
</g>
</svg>
