<svg width="911" height="882" viewBox="0 0 683.25 661.5" xmlns="http://www.w3.org/2000/svg" xmlns:xlink="http://www.w3.org/1999/xlink">
<g id="graph0" class="graph" transform="translate(154.9600067138672,547.0500030517578) scale(1)">
<polygon fill="white" stroke="transparent" points="-4,4 -4,-436.6 377.33,-436.6 377.33,4 -4,4"/>

<!-- onHangup -->
<g id="node1" class="node">
<title>onStartRegularCall</title>
<polygon fill="none" stroke="black" points="101.49,-382.5 101.49,-432.1 271.84,-432.1 271.84,-382.5 101.49,-382.5"/>
<text text-anchor="middle" x="186.66" y="-415.5" font-family="Times,serif" font-size="14.00">ARDMainView</text>
<polyline fill="none" stroke="black" points="101.49,-407.3 271.84,-407.3 "/>
<text text-anchor="middle" x="186.66" y="-390.7" font-family="Times,serif" font-size="14.00">- (void)onStartRegularCall:</text>
</g>
<!-- videoCallViewDidHangup -->

<!-- onHangup&#45;&gt;videoCallViewDidHangup -->
<g id="edge1" class="edge">
<title>onStartRegularCall-&gt;didInputRoom</title>
<path fill="none" stroke="black" d="M186.66,-382.27C186.66,-369.39 186.66,-353.3 186.66,-339.13"/>
<polygon fill="black" stroke="black" points="190.16,-338.76 186.66,-328.76 183.16,-338.76 190.16,-338.76"/>
<text text-anchor="middle" x="209.98" y="-351.4" font-family="Times,serif" font-size="14.00">delegate</text>
</g>
<!-- hangup --><g id="node3" class="node">
<title>initForRoom</title>
<polygon fill="none" stroke="black" points="36.95,-175.7 36.95,-225.3 336.38,-225.3 336.38,-175.7 36.95,-175.7"/>
<text text-anchor="middle" x="186.66" y="-208.7" font-family="Times,serif" font-size="14.00">ARDVideoCallViewController</text>
<polyline fill="none" stroke="black" points="36.95,-200.5 336.38,-200.5 "/>
<text text-anchor="middle" x="186.66" y="-183.9" font-family="Times,serif" font-size="14.00">- (instancetype)initForRoom:isLoopback:delegate:</text>
</g>
<g id="node2" class="node">
<title>didInputRoom</title>
<polygon fill="none" stroke="black" points="48.99,-279.1 48.99,-328.7 324.34,-328.7 324.34,-279.1 48.99,-279.1"/>
<text text-anchor="middle" x="186.66" y="-312.1" font-family="Times,serif" font-size="14.00">ARDMainViewController</text>
<polyline fill="none" stroke="black" points="48.99,-303.9 324.34,-303.9 "/>
<text text-anchor="middle" x="186.66" y="-287.3" font-family="Times,serif" font-size="14.00">- (void)mainView:didInputRoom:isLoopback:</text>
</g>
<!-- videoCallViewDidHangup&#45;&gt;hangup --><g id="edge2" class="edge">
<title>didInputRoom-&gt;initForRoom</title>
<path fill="none" stroke="black" d="M186.66,-278.87C186.66,-265.99 186.66,-249.9 186.66,-235.73"/>
<polygon fill="black" stroke="black" points="190.16,-235.36 186.66,-225.36 183.16,-235.36 190.16,-235.36"/>
<text text-anchor="middle" x="206.88" y="-248" font-family="Times,serif" font-size="14.00">present</text>
</g>

<!-- disconnect -->
<!-- sendMessage -->
<g id="node4" class="node">
<title>connectToRoomWithId</title>
<polygon fill="none" stroke="black" points="31.11,-88.1 31.11,-137.7 342.22,-137.7 342.22,-88.1 31.11,-88.1"/>
<text text-anchor="middle" x="186.66" y="-121.1" font-family="Times,serif" font-size="14.00">ARDAppClient</text>
<polyline fill="none" stroke="black" points="31.11,-112.9 342.22,-112.9 "/>
<text text-anchor="middle" x="186.66" y="-96.3" font-family="Times,serif" font-size="14.00">- (void)connectToRoomWithId:settings:isLoopback:</text>
</g><g id="edge3" class="edge">
<title>initForRoom-&gt;connectToRoomWithId</title>
<path fill="none" stroke="black" d="M186.66,-175.66C186.66,-167.1 186.66,-157.28 186.66,-148.03"/>
<polygon fill="black" stroke="black" points="190.16,-147.91 186.66,-137.91 183.16,-147.91 190.16,-147.91"/>
</g>
<!-- didInputRoominitForRoom -->

<g id="node5" class="node">
<title>joinRoomWithRoomId</title>
<polygon fill="none" stroke="black" points="0,-0.5 0,-50.1 373.33,-50.1 373.33,-0.5 0,-0.5"/>
<text text-anchor="middle" x="186.66" y="-33.5" font-family="Times,serif" font-size="14.00">ARDAppEngineClient</text>
<polyline fill="none" stroke="black" points="0,-25.300000000000004 373.33,-25.300000000000004 "/>
<text text-anchor="middle" x="186.66" y="-8.700000000000003" font-family="Times,serif" font-size="14.00">- (void)joinRoomWithRoomId:isLoopback:completionHandler:</text>
</g><!-- connectToRoomWithId&#45;&gt;joinRoomWithRoomId -->
<g id="edge4" class="edge">
<title>connectToRoomWithId-&gt;joinRoomWithRoomId</title>
<path fill="none" stroke="black" d="M186.66,-88.06C186.66,-79.5 186.66,-69.68 186.66,-60.43"/>
<polygon fill="black" stroke="black" points="190.16,-60.31 186.66,-50.31 183.16,-60.31 190.16,-60.31"/>
</g>
</g>
</svg>