<?xml version="1.0" encoding="UTF-8" standalone="no"?>
<!DOCTYPE svg PUBLIC "-//W3C//DTD SVG 1.1//EN"
 "http://www.w3.org/Graphics/SVG/1.1/DTD/svg11.dtd">
<!-- Generated by graphviz version 2.40.1 (20161225.0304)
 -->
<!-- Title: %0 Pages: 1 -->
<svg width="381pt" height="528pt"
 viewBox="0.00 0.00 381.33 528.20" xmlns="http://www.w3.org/2000/svg" xmlns:xlink="http://www.w3.org/1999/xlink">
<g id="graph0" class="graph" transform="scale(1 1) rotate(0) translate(4 524.2)">
<title>%0</title>
<polygon fill="#ffffff" stroke="transparent" points="-4,4 -4,-524.2 377.3318,-524.2 377.3318,4 -4,4"/>
<!-- title -->
<g id="node1" class="node">
<title>title</title>
<text text-anchor="middle" x="47.6659" y="-490.7" font-family="Times,serif" font-size="14.00" fill="#000000">加入房间</text>
</g>
<!-- onStartRegularCall -->
<g id="node2" class="node">
<title>onStartRegularCall</title>
<polygon fill="none" stroke="#000000" points="101.4902,-470.1 101.4902,-519.7 271.8416,-519.7 271.8416,-470.1 101.4902,-470.1"/>
<text text-anchor="middle" x="186.6659" y="-503.1" font-family="Times,serif" font-size="14.00" fill="#000000">ARDMainView</text>
<polyline fill="none" stroke="#000000" points="101.4902,-494.9 271.8416,-494.9 "/>
<text text-anchor="middle" x="186.6659" y="-478.3" font-family="Times,serif" font-size="14.00" fill="#000000">&#45; (void)onStartRegularCall:</text>
</g>
<!-- didInputRoom -->
<g id="node3" class="node">
<title>didInputRoom</title>
<polygon fill="none" stroke="#000000" points="48.9937,-366.7 48.9937,-416.3 324.3381,-416.3 324.3381,-366.7 48.9937,-366.7"/>
<text text-anchor="middle" x="186.6659" y="-399.7" font-family="Times,serif" font-size="14.00" fill="#000000">ARDMainViewController</text>
<polyline fill="none" stroke="#000000" points="48.9937,-391.5 324.3381,-391.5 "/>
<text text-anchor="middle" x="186.6659" y="-374.9" font-family="Times,serif" font-size="14.00" fill="#000000">&#45; (void)mainView:didInputRoom:isLoopback:</text>
</g>
<!-- onStartRegularCall&#45;&gt;didInputRoom -->
<g id="edge1" class="edge">
<title>onStartRegularCall&#45;&gt;didInputRoom</title>
<path fill="none" stroke="#000000" d="M186.6659,-469.8697C186.6659,-457.0102 186.6659,-441.1191 186.6659,-427.0152"/>
<polygon fill="#000000" stroke="#000000" points="190.166,-426.6581 186.6659,-416.6581 183.166,-426.6582 190.166,-426.6581"/>
<text text-anchor="middle" x="209.9857" y="-439" font-family="Times,serif" font-size="14.00" fill="#000000">delegate</text>
</g>
<!-- initForRoom -->
<g id="node4" class="node">
<title>initForRoom</title>
<polygon fill="none" stroke="#000000" points="36.9523,-263.3 36.9523,-312.9 336.3795,-312.9 336.3795,-263.3 36.9523,-263.3"/>
<text text-anchor="middle" x="186.6659" y="-296.3" font-family="Times,serif" font-size="14.00" fill="#000000">ARDVideoCallViewController</text>
<polyline fill="none" stroke="#000000" points="36.9523,-288.1 336.3795,-288.1 "/>
<text text-anchor="middle" x="186.6659" y="-271.5" font-family="Times,serif" font-size="14.00" fill="#000000">&#45; (instancetype)initForRoom:isLoopback:delegate:</text>
</g>
<!-- didInputRoom&#45;&gt;initForRoom -->
<g id="edge2" class="edge">
<title>didInputRoom&#45;&gt;initForRoom</title>
<path fill="none" stroke="#000000" d="M186.6659,-366.4697C186.6659,-353.6102 186.6659,-337.7191 186.6659,-323.6152"/>
<polygon fill="#000000" stroke="#000000" points="190.166,-323.2581 186.6659,-313.2581 183.166,-323.2582 190.166,-323.2581"/>
<text text-anchor="middle" x="206.8784" y="-335.6" font-family="Times,serif" font-size="14.00" fill="#000000">present</text>
</g>
<!-- connectToRoomWithId -->
<g id="node5" class="node">
<title>connectToRoomWithId</title>
<polygon fill="none" stroke="#000000" points="31.1122,-175.7 31.1122,-225.3 342.2196,-225.3 342.2196,-175.7 31.1122,-175.7"/>
<text text-anchor="middle" x="186.6659" y="-208.7" font-family="Times,serif" font-size="14.00" fill="#000000">ARDAppClient</text>
<polyline fill="none" stroke="#000000" points="31.1122,-200.5 342.2196,-200.5 "/>
<text text-anchor="middle" x="186.6659" y="-183.9" font-family="Times,serif" font-size="14.00" fill="#000000">&#45; (void)connectToRoomWithId:settings:isLoopback:</text>
</g>
<!-- initForRoom&#45;&gt;connectToRoomWithId -->
<g id="edge3" class="edge">
<title>initForRoom&#45;&gt;connectToRoomWithId</title>
<path fill="none" stroke="#000000" d="M186.6659,-263.2317C186.6659,-254.6318 186.6659,-244.8262 186.6659,-235.5639"/>
<polygon fill="#000000" stroke="#000000" points="190.166,-235.4305 186.6659,-225.4305 183.166,-235.4305 190.166,-235.4305"/>
</g>
<!-- joinRoomWithRoomId -->
<g id="node6" class="node">
<title>joinRoomWithRoomId</title>
<polygon fill="none" stroke="#000000" points="0,-88.1 0,-137.7 373.3318,-137.7 373.3318,-88.1 0,-88.1"/>
<text text-anchor="middle" x="186.6659" y="-121.1" font-family="Times,serif" font-size="14.00" fill="#000000">ARDAppEngineClient</text>
<polyline fill="none" stroke="#000000" points="0,-112.9 373.3318,-112.9 "/>
<text text-anchor="middle" x="186.6659" y="-96.3" font-family="Times,serif" font-size="14.00" fill="#000000">&#45; (void)joinRoomWithRoomId:isLoopback:completionHandler:</text>
</g>
<!-- connectToRoomWithId&#45;&gt;joinRoomWithRoomId -->
<g id="edge4" class="edge">
<title>connectToRoomWithId&#45;&gt;joinRoomWithRoomId</title>
<path fill="none" stroke="#000000" d="M186.6659,-175.6317C186.6659,-167.0318 186.6659,-157.2262 186.6659,-147.9639"/>
<polygon fill="#000000" stroke="#000000" points="190.166,-147.8305 186.6659,-137.8305 183.166,-147.8305 190.166,-147.8305"/>
</g>
<!-- sendAsyncRequest -->
<g id="node7" class="node">
<title>sendAsyncRequest</title>
<polygon fill="none" stroke="#000000" points="46.2868,-.5 46.2868,-50.1 327.045,-50.1 327.045,-.5 46.2868,-.5"/>
<text text-anchor="middle" x="186.6659" y="-33.5" font-family="Times,serif" font-size="14.00" fill="#000000">NSURLConnection</text>
<polyline fill="none" stroke="#000000" points="46.2868,-25.3 327.045,-25.3 "/>
<text text-anchor="middle" x="186.6659" y="-8.7" font-family="Times,serif" font-size="14.00" fill="#000000">&#45; (void)sendAsyncRequest:completionHandler:</text>
</g>
<!-- joinRoomWithRoomId&#45;&gt;sendAsyncRequest -->
<g id="edge5" class="edge">
<title>joinRoomWithRoomId&#45;&gt;sendAsyncRequest</title>
<path fill="none" stroke="#000000" d="M186.6659,-88.0317C186.6659,-79.4318 186.6659,-69.6262 186.6659,-60.3639"/>
<polygon fill="#000000" stroke="#000000" points="190.166,-60.2305 186.6659,-50.2305 183.166,-60.2305 190.166,-60.2305"/>
</g>
</g>
</svg>
