<?xml version="1.0" standalone="no"?>
<svg xmlns="http://www.w3.org/2000/svg" xmlns:xlink="http://www.w3.org/1999/xlink" width="526pt" height="616pt" viewBox="0.00 0.00 526.44 615.8">
<g id="graph0" class="graph" transform="translate(4,611.7999877929688) scale(1)" data-name="">
<polygon fill="white" stroke="none" points="-4,4 -4,-611.8 522.44,-611.8 522.44,4 -4,4"/>
<!-- joinRoomWithRoomId -->
<g id="node1" class="node" pointer-events="visible" data-name="joinRoomWithRoomId">

<polygon fill="none" stroke="black" points="88.66,-557.7 88.66,-607.3 461.98,-607.3 461.98,-557.7 88.66,-557.7"/>
<text text-anchor="middle" x="275.32" y="-590.7" font-family="Times,serif" font-size="14.00">ARDAppEngineClient</text>
<polyline fill="none" stroke="black" points="88.66,-582.5 461.98,-582.5"/>
<text text-anchor="middle" x="275.32" y="-565.9" font-family="Times,serif" font-size="14.00">- (void)joinRoomWithRoomId:isLoopback:completionHandler:</text>
</g>
<!-- registerWithColliderIfReady -->
<g id="node2" class="node" pointer-events="visible" data-name="registerWithColliderIfReady">

<polygon fill="none" stroke="black" points="165.66,-454.3 165.66,-503.9 384.98,-503.9 384.98,-454.3 165.66,-454.3"/>
<text text-anchor="middle" x="275.32" y="-487.3" font-family="Times,serif" font-size="14.00">ARDAppClient</text>
<polyline fill="none" stroke="black" points="165.66,-479.1 384.98,-479.1"/>
<text text-anchor="middle" x="275.32" y="-462.5" font-family="Times,serif" font-size="14.00">- (void)registerWithColliderIfReady</text>
</g>
<!-- joinRoomWithRoomId&#45;&gt;registerWithColliderIfReady -->
<g id="edge1" class="edge" data-name="joinRoomWithRoomId-&gt;registerWithColliderIfReady">

<path fill="none" stroke="black" d="M275.32,-557.73C275.32,-545.01 275.32,-529.12 275.32,-515.03"/>
<polygon fill="black" stroke="black" points="278.82,-515.24 275.32,-505.24 271.82,-515.24 278.82,-515.24"/>
<text text-anchor="middle" x="298.64" y="-526.6" font-family="Times,serif" font-size="14.00">callback</text>
</g>
<!-- initWithURL -->
<g id="node3" class="node" pointer-events="visible" data-name="initWithURL">

<polygon fill="none" stroke="black" points="0,-366.7 0,-416.3 284.64,-416.3 284.64,-366.7 0,-366.7"/>
<text text-anchor="middle" x="142.32" y="-399.7" font-family="Times,serif" font-size="14.00">ARDWebSocketChannel</text>
<polyline fill="none" stroke="black" points="0,-391.5 284.64,-391.5"/>
<text text-anchor="middle" x="142.32" y="-374.9" font-family="Times,serif" font-size="14.00">- (instancetype)initWithURL:restURL:delegate:</text>
</g>
<!-- registerWithColliderIfReady&#45;&gt;initWithURL -->
<g id="edge2" class="edge" data-name="registerWithColliderIfReady-&gt;initWithURL">

<path fill="none" stroke="black" d="M238.62,-454.48C223.07,-444.47 204.77,-432.7 188.33,-422.11"/>
<polygon fill="black" stroke="black" points="190.47,-419.33 180.17,-416.86 186.68,-425.21 190.47,-419.33"/>
</g>
<!-- registerForRoomId -->
<g id="node6" class="node" pointer-events="visible" data-name="registerForRoomId">

<polygon fill="none" stroke="black" points="302.2,-366.7 302.2,-416.3 518.44,-416.3 518.44,-366.7 302.2,-366.7"/>
<text text-anchor="middle" x="410.32" y="-399.7" font-family="Times,serif" font-size="14.00">ARDWebSocketChannel</text>
<polyline fill="none" stroke="black" points="302.2,-391.5 518.44,-391.5"/>
<text text-anchor="middle" x="410.32" y="-374.9" font-family="Times,serif" font-size="14.00">- (void)registerForRoomId:clientId:</text>
</g>
<!-- registerWithColliderIfReady&#45;&gt;registerForRoomId -->
<g id="edge3" class="edge" data-name="registerWithColliderIfReady-&gt;registerForRoomId">

<path fill="none" stroke="black" d="M312.57,-454.48C328.35,-444.47 346.93,-432.7 363.62,-422.11"/>
<polygon fill="black" stroke="black" points="365.34,-425.16 371.92,-416.85 361.6,-419.25 365.34,-425.16"/>
</g>
<!-- open -->
<g id="node4" class="node" pointer-events="visible" data-name="open">

<polygon fill="none" stroke="black" points="121.49,-279.1 121.49,-328.7 219.15,-328.7 219.15,-279.1 121.49,-279.1"/>
<text text-anchor="middle" x="170.32" y="-312.1" font-family="Times,serif" font-size="14.00">SRWebSocket</text>
<polyline fill="none" stroke="black" points="121.49,-303.9 219.15,-303.9"/>
<text text-anchor="middle" x="170.32" y="-287.3" font-family="Times,serif" font-size="14.00">- (void)open</text>
</g>
<!-- initWithURL&#45;&gt;open -->
<g id="edge4" class="edge" data-name="initWithURL-&gt;open">

<path fill="none" stroke="black" d="M149.97,-367.11C152.76,-358.59 155.97,-348.78 159,-339.49"/>
<polygon fill="black" stroke="black" points="162.33,-340.59 162.11,-330 155.67,-338.41 162.33,-340.59"/>
</g>
<!-- webSocketDidOpen -->
<g id="node5" class="node" pointer-events="visible" data-name="webSocketDidOpen">

<polygon fill="none" stroke="black" points="196.81,-175.7 196.81,-225.3 371.83,-225.3 371.83,-175.7 196.81,-175.7"/>
<text text-anchor="middle" x="284.32" y="-208.7" font-family="Times,serif" font-size="14.00">ARDWebSocketChannel</text>
<polyline fill="none" stroke="black" points="196.81,-200.5 371.83,-200.5"/>
<text text-anchor="middle" x="284.32" y="-183.9" font-family="Times,serif" font-size="14.00">- (void)webSocketDidOpen:</text>
</g>
<!-- open&#45;&gt;webSocketDidOpen -->
<g id="edge5" class="edge" data-name="open:port0-&gt;webSocketDidOpen" data-comment="open-&gt;webSocketDidOpen">

<path fill="none" stroke="black" d="M220.32,-315.9C257.17,-315.9 273.01,-270.14 279.67,-236.5"/>
<polygon fill="black" stroke="black" points="283.11,-237.15 281.4,-226.69 276.22,-235.93 283.11,-237.15"/>
<text text-anchor="middle" x="301.64" y="-248" font-family="Times,serif" font-size="14.00">delegate</text>
</g>
<!-- registerWithCollider -->
<g id="node7" class="node" pointer-events="visible" data-name="registerWithCollider">

<polygon fill="none" stroke="black" points="257.2,-88.1 257.2,-137.7 431.44,-137.7 431.44,-88.1 257.2,-88.1"/>
<text text-anchor="middle" x="344.32" y="-121.1" font-family="Times,serif" font-size="14.00">ARDWebSocketChannel</text>
<polyline fill="none" stroke="black" points="257.2,-112.9 431.44,-112.9"/>
<text text-anchor="middle" x="344.32" y="-96.3" font-family="Times,serif" font-size="14.00">- (void)registerWithCollider</text>
</g>
<!-- webSocketDidOpen&#45;&gt;registerWithCollider -->
<g id="edge6" class="edge" data-name="webSocketDidOpen-&gt;registerWithCollider">

<path fill="none" stroke="black" d="M300.71,-176.11C307.01,-167.12 314.32,-156.69 321.14,-146.97"/>
<polygon fill="black" stroke="black" points="323.99,-149 326.87,-138.8 318.26,-144.98 323.99,-149"/>
</g>
<!-- registerForRoomId&#45;&gt;registerWithCollider -->
<g id="edge7" class="edge" data-name="registerForRoomId-&gt;registerWithCollider">

<path fill="none" stroke="black" d="M410.25,-366.83C409.44,-326.39 404.8,-241.91 381.32,-175.2 377.93,-165.57 372.91,-155.82 367.65,-147"/>
<polygon fill="black" stroke="black" points="370.78,-145.4 362.5,-138.79 364.85,-149.12 370.78,-145.4"/>
</g>
<!-- send -->
<g id="node8" class="node" pointer-events="visible" data-name="send">

<polygon fill="none" stroke="black" points="295.49,-0.5 295.49,-50.1 393.15,-50.1 393.15,-0.5 295.49,-0.5"/>
<text text-anchor="middle" x="344.32" y="-33.5" font-family="Times,serif" font-size="14.00">SRWebSocket</text>
<polyline fill="none" stroke="black" points="295.49,-25.3 393.15,-25.3"/>
<text text-anchor="middle" x="344.32" y="-8.7" font-family="Times,serif" font-size="14.00">- (void)send:</text>
</g>
<!-- registerWithCollider&#45;&gt;send -->
<g id="edge8" class="edge" data-name="registerWithCollider-&gt;send">

<path fill="none" stroke="black" d="M344.32,-88.51C344.32,-80.09 344.32,-70.39 344.32,-61.2"/>
<polygon fill="black" stroke="black" points="347.82,-61.47 344.32,-51.47 340.82,-61.47 347.82,-61.47"/>
</g>
</g>
</svg>