<?xml version="1.0" encoding="UTF-8" standalone="no"?>
<!DOCTYPE svg PUBLIC "-//W3C//DTD SVG 1.1//EN"
 "http://www.w3.org/Graphics/SVG/1.1/DTD/svg11.dtd">
<!-- Generated by graphviz version 2.40.1 (20161225.0304)
 -->
<!-- Title: %0 Pages: 1 -->
<svg width="956pt" height="616pt"
 viewBox="0.00 0.00 955.64 615.80" xmlns="http://www.w3.org/2000/svg" xmlns:xlink="http://www.w3.org/1999/xlink">
<g id="graph0" class="graph" transform="scale(1 1) rotate(0) translate(4 611.8)">
<title>%0</title>
<polygon fill="#ffffff" stroke="transparent" points="-4,4 -4,-611.8 951.6432,-611.8 951.6432,4 -4,4"/>
<!-- title -->
<g id="node1" class="node">
<title>title</title>
<text text-anchor="middle" x="208.3791" y="-578.3" font-family="Times,serif" font-size="14.00" fill="#000000">离开房间</text>
</g>
<!-- onHangup -->
<g id="node2" class="node">
<title>onHangup</title>
<polygon fill="none" stroke="#000000" points="268.6729,-557.7 268.6729,-607.3 402.0853,-607.3 402.0853,-557.7 268.6729,-557.7"/>
<text text-anchor="middle" x="335.3791" y="-590.7" font-family="Times,serif" font-size="14.00" fill="#000000">ARDVideoCallView</text>
<polyline fill="none" stroke="#000000" points="268.6729,-582.5 402.0853,-582.5 "/>
<text text-anchor="middle" x="335.3791" y="-565.9" font-family="Times,serif" font-size="14.00" fill="#000000">&#45; (void)onHangup:</text>
</g>
<!-- videoCallViewDidHangup -->
<g id="node3" class="node">
<title>videoCallViewDidHangup</title>
<polygon fill="none" stroke="#000000" points="229.2104,-454.3 229.2104,-503.9 441.5478,-503.9 441.5478,-454.3 229.2104,-454.3"/>
<text text-anchor="middle" x="335.3791" y="-487.3" font-family="Times,serif" font-size="14.00" fill="#000000">ARDVideoCallViewController</text>
<polyline fill="none" stroke="#000000" points="229.2104,-479.1 441.5478,-479.1 "/>
<text text-anchor="middle" x="335.3791" y="-462.5" font-family="Times,serif" font-size="14.00" fill="#000000">&#45; (void)videoCallViewDidHangup:</text>
</g>
<!-- onHangup&#45;&gt;videoCallViewDidHangup -->
<g id="edge1" class="edge">
<title>onHangup&#45;&gt;videoCallViewDidHangup</title>
<path fill="none" stroke="#000000" d="M335.3791,-557.4697C335.3791,-544.6102 335.3791,-528.7191 335.3791,-514.6152"/>
<polygon fill="#000000" stroke="#000000" points="338.8792,-514.2581 335.3791,-504.2581 331.8792,-514.2582 338.8792,-514.2581"/>
<text text-anchor="middle" x="358.6989" y="-526.6" font-family="Times,serif" font-size="14.00" fill="#000000">delegate</text>
</g>
<!-- hangup -->
<g id="node4" class="node">
<title>hangup</title>
<polygon fill="none" stroke="#000000" points="239.9008,-366.7 239.9008,-416.3 430.8574,-416.3 430.8574,-366.7 239.9008,-366.7"/>
<text text-anchor="middle" x="335.3791" y="-399.7" font-family="Times,serif" font-size="14.00" fill="#000000">ARDVideoCallViewController</text>
<polyline fill="none" stroke="#000000" points="239.9008,-391.5 430.8574,-391.5 "/>
<text text-anchor="middle" x="335.3791" y="-374.9" font-family="Times,serif" font-size="14.00" fill="#000000">&#45; (void)hangup</text>
</g>
<!-- videoCallViewDidHangup&#45;&gt;hangup -->
<g id="edge2" class="edge">
<title>videoCallViewDidHangup&#45;&gt;hangup</title>
<path fill="none" stroke="#000000" d="M335.3791,-454.2317C335.3791,-445.6318 335.3791,-435.8262 335.3791,-426.5639"/>
<polygon fill="#000000" stroke="#000000" points="338.8792,-426.4305 335.3791,-416.4305 331.8792,-426.4305 338.8792,-426.4305"/>
</g>
<!-- disconnect -->
<g id="node5" class="node">
<title>disconnect</title>
<polygon fill="none" stroke="#000000" points="276.2581,-279.1 276.2581,-328.7 394.5001,-328.7 394.5001,-279.1 276.2581,-279.1"/>
<text text-anchor="middle" x="335.3791" y="-312.1" font-family="Times,serif" font-size="14.00" fill="#000000">ARDAppClient</text>
<polyline fill="none" stroke="#000000" points="276.2581,-303.9 394.5001,-303.9 "/>
<text text-anchor="middle" x="335.3791" y="-287.3" font-family="Times,serif" font-size="14.00" fill="#000000">&#45; (void)disconnect</text>
</g>
<!-- hangup&#45;&gt;disconnect -->
<g id="edge3" class="edge">
<title>hangup&#45;&gt;disconnect</title>
<path fill="none" stroke="#000000" d="M335.3791,-366.6317C335.3791,-358.0318 335.3791,-348.2262 335.3791,-338.9639"/>
<polygon fill="#000000" stroke="#000000" points="338.8792,-338.8305 335.3791,-328.8305 331.8792,-338.8305 338.8792,-338.8305"/>
</g>
<!-- leaveRoomWithRoomId -->
<g id="node6" class="node">
<title>leaveRoomWithRoomId</title>
<polygon fill="none" stroke="#000000" points="19.1143,-191.5 19.1143,-241.1 377.6439,-241.1 377.6439,-191.5 19.1143,-191.5"/>
<text text-anchor="middle" x="198.3791" y="-224.5" font-family="Times,serif" font-size="14.00" fill="#000000">ARDAppEngineClient</text>
<polyline fill="none" stroke="#000000" points="19.1143,-216.3 377.6439,-216.3 "/>
<text text-anchor="middle" x="198.3791" y="-199.7" font-family="Times,serif" font-size="14.00" fill="#000000">&#45; (void)leaveRoomWithRoomId:clientId:completionHandler:</text>
</g>
<!-- disconnect&#45;&gt;leaveRoomWithRoomId -->
<g id="edge4" class="edge">
<title>disconnect&#45;&gt;leaveRoomWithRoomId</title>
<path fill="none" stroke="#000000" d="M296.4869,-279.0317C280.7234,-268.9523 262.3696,-257.2165 245.8294,-246.6405"/>
<polygon fill="#000000" stroke="#000000" points="247.679,-243.6689 237.3686,-241.2305 243.9081,-249.5663 247.679,-243.6689"/>
</g>
<!-- sendMessage -->
<g id="node8" class="node">
<title>sendMessage</title>
<polygon fill="none" stroke="#000000" points="425.0102,-191.5 425.0102,-241.1 581.748,-241.1 581.748,-191.5 425.0102,-191.5"/>
<text text-anchor="middle" x="503.3791" y="-224.5" font-family="Times,serif" font-size="14.00" fill="#000000">ARDWebSocketChannel</text>
<polyline fill="none" stroke="#000000" points="425.0102,-216.3 581.748,-216.3 "/>
<text text-anchor="middle" x="503.3791" y="-199.7" font-family="Times,serif" font-size="14.00" fill="#000000">&#45; (void)sendMessage:</text>
</g>
<!-- disconnect&#45;&gt;sendMessage -->
<g id="edge5" class="edge">
<title>disconnect&#45;&gt;sendMessage</title>
<path fill="none" stroke="#000000" d="M383.0718,-279.0317C402.8455,-268.7211 425.9431,-256.6773 446.5839,-245.9146"/>
<polygon fill="#000000" stroke="#000000" points="448.3184,-248.9575 455.5672,-241.2305 445.0819,-242.7506 448.3184,-248.9575"/>
</g>
<!-- sendAsyncRequest -->
<g id="node7" class="node">
<title>sendAsyncRequest</title>
<polygon fill="none" stroke="#000000" points="0,-103.9 0,-153.5 280.7582,-153.5 280.7582,-103.9 0,-103.9"/>
<text text-anchor="middle" x="140.3791" y="-136.9" font-family="Times,serif" font-size="14.00" fill="#000000">NSURLConnection</text>
<polyline fill="none" stroke="#000000" points="0,-128.7 280.7582,-128.7 "/>
<text text-anchor="middle" x="140.3791" y="-112.1" font-family="Times,serif" font-size="14.00" fill="#000000">&#45; (void)sendAsyncRequest:completionHandler:</text>
</g>
<!-- leaveRoomWithRoomId&#45;&gt;sendAsyncRequest -->
<g id="edge6" class="edge">
<title>leaveRoomWithRoomId&#45;&gt;sendAsyncRequest</title>
<path fill="none" stroke="#000000" d="M181.9138,-191.4317C175.8524,-182.277 168.8865,-171.7559 162.4128,-161.9784"/>
<polygon fill="#000000" stroke="#000000" points="165.3246,-160.0363 156.8856,-153.6305 159.4879,-163.9008 165.3246,-160.0363"/>
</g>
<!-- kARDSignalingChannelStateRegistered -->
<g id="node9" class="node">
<title>kARDSignalingChannelStateRegistered</title>
<polygon fill="none" stroke="#000000" points="533.3791,-146.7 298.7056,-128.7 533.3791,-110.7 768.0526,-128.7 533.3791,-146.7"/>
<text text-anchor="middle" x="533.3791" y="-124.5" font-family="Times,serif" font-size="14.00" fill="#000000">kARDSignalingChannelStateRegistered</text>
</g>
<!-- sendMessage&#45;&gt;kARDSignalingChannelStateRegistered -->
<g id="edge7" class="edge">
<title>sendMessage&#45;&gt;kARDSignalingChannelStateRegistered</title>
<path fill="none" stroke="#000000" d="M511.8957,-191.4317C515.6623,-180.4331 520.1043,-167.4623 523.9688,-156.1781"/>
<polygon fill="#000000" stroke="#000000" points="527.3907,-156.9888 527.3194,-146.3942 520.7682,-154.7208 527.3907,-156.9888"/>
</g>
<!-- send -->
<g id="node10" class="node">
<title>send</title>
<polygon fill="none" stroke="#000000" points="249.5537,-.5 249.5537,-50.1 347.2045,-50.1 347.2045,-.5 249.5537,-.5"/>
<text text-anchor="middle" x="298.3791" y="-33.5" font-family="Times,serif" font-size="14.00" fill="#000000">SRWebSocket</text>
<polyline fill="none" stroke="#000000" points="249.5537,-25.3 347.2045,-25.3 "/>
<text text-anchor="middle" x="298.3791" y="-8.7" font-family="Times,serif" font-size="14.00" fill="#000000">&#45; (void)send:</text>
</g>
<!-- kARDSignalingChannelStateRegistered&#45;&gt;send -->
<g id="edge8" class="edge">
<title>kARDSignalingChannelStateRegistered:w&#45;&gt;send</title>
<path fill="none" stroke="#000000" d="M298.3791,-128.7C291.3938,-128.7 292.9027,-90.4765 295.159,-60.5095"/>
<polygon fill="#000000" stroke="#000000" points="298.6646,-60.5781 295.9755,-50.3303 291.687,-60.0183 298.6646,-60.5781"/>
<text text-anchor="middle" x="308.6" y="-72.8" font-family="Times,serif" font-size="14.00" fill="#000000">YES</text>
</g>
<!-- sendAsyncPostToURL -->
<g id="node11" class="node">
<title>sendAsyncPostToURL</title>
<polygon fill="none" stroke="#000000" points="589.115,-.5 589.115,-50.1 947.6432,-50.1 947.6432,-.5 589.115,-.5"/>
<text text-anchor="middle" x="768.3791" y="-33.5" font-family="Times,serif" font-size="14.00" fill="#000000">NSURLConnection</text>
<polyline fill="none" stroke="#000000" points="589.115,-25.3 947.6432,-25.3 "/>
<text text-anchor="middle" x="768.3791" y="-8.7" font-family="Times,serif" font-size="14.00" fill="#000000">&#45; (void)sendAsyncPostToURL:withData:completionHandler:</text>
</g>
<!-- kARDSignalingChannelStateRegistered&#45;&gt;sendAsyncPostToURL -->
<g id="edge9" class="edge">
<title>kARDSignalingChannelStateRegistered:e&#45;&gt;sendAsyncPostToURL</title>
<path fill="none" stroke="#000000" d="M768.3791,-128.7C796.4422,-128.7 790.2314,-90.142 781.1412,-60.1174"/>
<polygon fill="#000000" stroke="#000000" points="784.3872,-58.7783 777.9934,-50.3303 777.7234,-60.9217 784.3872,-58.7783"/>
<text text-anchor="middle" x="796.4857" y="-72.8" font-family="Times,serif" font-size="14.00" fill="#000000">NO</text>
</g>
</g>
</svg>
