<?xml version="1.0" standalone="no"?>
<svg xmlns="http://www.w3.org/2000/svg" xmlns:xlink="http://www.w3.org/1999/xlink" width="382pt" height="458pt" viewBox="0.00 0.00 382.33 458.40">
<g id="graph0" class="graph" transform="translate(20.415084273048137,418.631446094776) scale(0.8717582395370614)" data-name="">
<polygon fill="white" stroke="none" points="-4,4 -4,-454.4 378.33,-454.4 378.33,4 -4,4"/>
<!-- onHangup -->
<g id="node1" class="node" pointer-events="visible" data-name="onHangup">

<polygon fill="none" stroke="black" points="131.24,-400.3 131.24,-449.9 264.67,-449.9 264.67,-400.3 131.24,-400.3"/>
<text text-anchor="middle" x="197.95" y="-433.3" font-family="Times,serif" font-size="14.00">ARDVideoCallView</text>
<polyline fill="none" stroke="black" points="131.24,-425.1 264.67,-425.1"/>
<text text-anchor="middle" x="197.95" y="-408.5" font-family="Times,serif" font-size="14.00">- (void)onHangup:</text>
</g>
<!-- videoCallViewDidHangup -->
<g id="node2" class="node" pointer-events="visible" data-name="videoCallViewDidHangup">

<polygon fill="none" stroke="black" points="91.78,-296.9 91.78,-346.5 304.13,-346.5 304.13,-296.9 91.78,-296.9"/>
<text text-anchor="middle" x="197.95" y="-329.9" font-family="Times,serif" font-size="14.00">ARDVideoCallViewController</text>
<polyline fill="none" stroke="black" points="91.78,-321.7 304.13,-321.7"/>
<text text-anchor="middle" x="197.95" y="-305.1" font-family="Times,serif" font-size="14.00">- (void)videoCallViewDidHangup:</text>
</g>
<!-- onHangup&#45;&gt;videoCallViewDidHangup -->
<g id="edge1" class="edge" data-name="onHangup-&gt;videoCallViewDidHangup">

<path fill="none" stroke="black" d="M197.95,-400.33C197.95,-387.61 197.95,-371.72 197.95,-357.63"/>
<polygon fill="black" stroke="black" points="201.45,-357.84 197.95,-347.84 194.45,-357.84 201.45,-357.84"/>
<text text-anchor="middle" x="221.27" y="-369.2" font-family="Times,serif" font-size="14.00">delegate</text>
</g>
<!-- hangup -->
<g id="node3" class="node" pointer-events="visible" data-name="hangup">

<polygon fill="none" stroke="black" points="102.47,-209.3 102.47,-258.9 293.44,-258.9 293.44,-209.3 102.47,-209.3"/>
<text text-anchor="middle" x="197.95" y="-242.3" font-family="Times,serif" font-size="14.00">ARDVideoCallViewController</text>
<polyline fill="none" stroke="black" points="102.47,-234.1 293.44,-234.1"/>
<text text-anchor="middle" x="197.95" y="-217.5" font-family="Times,serif" font-size="14.00">- (void)hangup</text>
</g>
<!-- videoCallViewDidHangup&#45;&gt;hangup -->
<g id="edge2" class="edge" data-name="videoCallViewDidHangup-&gt;hangup">

<path fill="none" stroke="black" d="M197.95,-297.31C197.95,-288.89 197.95,-279.19 197.95,-270"/>
<polygon fill="black" stroke="black" points="201.45,-270.27 197.95,-260.27 194.45,-270.27 201.45,-270.27"/>
</g>
<!-- disconnect -->
<g id="node4" class="node" pointer-events="visible" data-name="disconnect">

<polygon fill="none" stroke="black" points="138.83,-121.7 138.83,-171.3 257.08,-171.3 257.08,-121.7 138.83,-121.7"/>
<text text-anchor="middle" x="197.95" y="-154.7" font-family="Times,serif" font-size="14.00">ARDAppClient</text>
<polyline fill="none" stroke="black" points="138.83,-146.5 257.08,-146.5"/>
<text text-anchor="middle" x="197.95" y="-129.9" font-family="Times,serif" font-size="14.00">- (void)disconnect</text>
</g>
<!-- hangup&#45;&gt;disconnect -->
<g id="edge3" class="edge" data-name="hangup-&gt;disconnect">

<path fill="none" stroke="black" d="M197.95,-209.71C197.95,-201.29 197.95,-191.59 197.95,-182.4"/>
<polygon fill="black" stroke="black" points="201.45,-182.67 197.95,-172.67 194.45,-182.67 201.45,-182.67"/>
</g>
<!-- leaveRoomWithRoomId -->
<g id="node5" class="node" pointer-events="visible" data-name="leaveRoomWithRoomId">

<polygon fill="none" stroke="black" points="0,-0.5 0,-83.7 199.91,-83.7 199.91,-0.5 0,-0.5"/>
<text text-anchor="middle" x="99.95" y="-67.1" font-family="Times,serif" font-size="14.00">ARDAppEngineClient</text>
<polyline fill="none" stroke="black" points="0,-58.9 199.91,-58.9"/>
<text text-anchor="middle" x="99.95" y="-42.3" font-family="Times,serif" font-size="14.00">- (void)leaveRoomWithRoomId:</text>
<text text-anchor="middle" x="99.95" y="-25.5" font-family="Times,serif" font-size="14.00">clientId:</text>
<text text-anchor="middle" x="99.95" y="-8.7" font-family="Times,serif" font-size="14.00">completionHandler:</text>
</g>
<!-- disconnect&#45;&gt;leaveRoomWithRoomId -->
<g id="edge4" class="edge" data-name="disconnect-&gt;leaveRoomWithRoomId">

<path fill="none" stroke="black" d="M175.22,-121.75C166.66,-112.8 156.57,-102.26 146.61,-91.85"/>
<polygon fill="black" stroke="black" points="149.18,-89.47 139.73,-84.66 144.12,-94.31 149.18,-89.47"/>
</g>
<!-- sendMessage -->
<g id="node6" class="node" pointer-events="visible" data-name="sendMessage">

<polygon fill="none" stroke="black" points="217.58,-17.3 217.58,-66.9 374.33,-66.9 374.33,-17.3 217.58,-17.3"/>
<text text-anchor="middle" x="295.95" y="-50.3" font-family="Times,serif" font-size="14.00">ARDWebSocketChannel</text>
<polyline fill="none" stroke="black" points="217.58,-42.1 374.33,-42.1"/>
<text text-anchor="middle" x="295.95" y="-25.5" font-family="Times,serif" font-size="14.00">- (void)sendMessage:</text>
</g>
<!-- disconnect&#45;&gt;sendMessage -->
<g id="edge5" class="edge" data-name="disconnect-&gt;sendMessage">

<path fill="none" stroke="black" d="M220.68,-121.75C234.04,-107.79 251.1,-89.97 265.6,-74.82"/>
<polygon fill="black" stroke="black" points="267.92,-77.46 272.3,-67.81 262.86,-72.62 267.92,-77.46"/>
</g>
</g>
</svg>