<?xml version="1.0" encoding="UTF-8" standalone="no"?>
<!DOCTYPE svg PUBLIC "-//W3C//DTD SVG 1.1//EN"
 "http://www.w3.org/Graphics/SVG/1.1/DTD/svg11.dtd">
<!-- Generated by graphviz version 2.40.1 (20161225.0304)
 -->
<!-- Title: %0 Pages: 1 -->
<svg width="995pt" height="617pt"
 viewBox="0.00 0.00 995.20 617.00" xmlns="http://www.w3.org/2000/svg" xmlns:xlink="http://www.w3.org/1999/xlink">
<g id="graph0" class="graph" transform="scale(1 1) rotate(0) translate(4 613)">
<title>%0</title>
<polygon fill="#ffffff" stroke="transparent" points="-4,4 -4,-613 991.1982,-613 991.1982,4 -4,4"/>
<!-- title -->
<g id="node1" class="node">
<title>title</title>
<text text-anchor="middle" x="51.9341" y="-579.5" font-family="Times,serif" font-size="14.00" fill="#000000">发送 Candidate</text>
</g>
<!-- setLocalDescription -->
<g id="node2" class="node">
<title>setLocalDescription</title>
<polygon fill="none" stroke="#000000" points="121.4505,-558.9 121.4505,-608.5 408.4177,-608.5 408.4177,-558.9 121.4505,-558.9"/>
<text text-anchor="middle" x="264.9341" y="-591.9" font-family="Times,serif" font-size="14.00" fill="#000000">RTCPeerConnection</text>
<polyline fill="none" stroke="#000000" points="121.4505,-583.7 408.4177,-583.7 "/>
<text text-anchor="middle" x="264.9341" y="-567.1" font-family="Times,serif" font-size="14.00" fill="#000000">&#45; (void)setLocalDescription:completionHandler:</text>
</g>
<!-- didGenerateIceCandidate -->
<g id="node3" class="node">
<title>didGenerateIceCandidate</title>
<polygon fill="none" stroke="#000000" points="259.4098,-455.5 259.4098,-505.1 556.4584,-505.1 556.4584,-455.5 259.4098,-455.5"/>
<text text-anchor="middle" x="407.9341" y="-488.5" font-family="Times,serif" font-size="14.00" fill="#000000">ARDAppClient</text>
<polyline fill="none" stroke="#000000" points="259.4098,-480.3 556.4584,-480.3 "/>
<text text-anchor="middle" x="407.9341" y="-463.7" font-family="Times,serif" font-size="14.00" fill="#000000">&#45; (void)peerConnection:didGenerateIceCandidate:</text>
</g>
<!-- setLocalDescription&#45;&gt;didGenerateIceCandidate -->
<g id="edge1" class="edge">
<title>setLocalDescription:e&#45;&gt;didGenerateIceCandidate</title>
<path fill="none" stroke="#000000" d="M407.9341,-595.7C440.5743,-595.7 431.6701,-548.9627 420.8798,-514.9751"/>
<polygon fill="#000000" stroke="#000000" points="424.1507,-513.7197 417.6674,-505.3401 417.5101,-515.9338 424.1507,-513.7197"/>
<text text-anchor="middle" x="451.2539" y="-527.8" font-family="Times,serif" font-size="14.00" fill="#000000">delegate</text>
</g>
<!-- sendSignalingMessage -->
<g id="node4" class="node">
<title>sendSignalingMessage</title>
<polygon fill="none" stroke="#000000" points="312.6497,-367.9 312.6497,-417.5 503.2185,-417.5 503.2185,-367.9 312.6497,-367.9"/>
<text text-anchor="middle" x="407.9341" y="-400.9" font-family="Times,serif" font-size="14.00" fill="#000000">ARDAppClient</text>
<polyline fill="none" stroke="#000000" points="312.6497,-392.7 503.2185,-392.7 "/>
<text text-anchor="middle" x="407.9341" y="-376.1" font-family="Times,serif" font-size="14.00" fill="#000000">&#45; (void)sendSignalingMessage:</text>
</g>
<!-- didGenerateIceCandidate&#45;&gt;sendSignalingMessage -->
<g id="edge2" class="edge">
<title>didGenerateIceCandidate&#45;&gt;sendSignalingMessage</title>
<path fill="none" stroke="#000000" d="M407.9341,-455.4317C407.9341,-446.8318 407.9341,-437.0262 407.9341,-427.7639"/>
<polygon fill="#000000" stroke="#000000" points="411.4342,-427.6305 407.9341,-417.6305 404.4342,-427.6305 411.4342,-427.6305"/>
</g>
<!-- isInitiator -->
<g id="node5" class="node">
<title>isInitiator</title>
<polygon fill="none" stroke="#000000" points="407.9341,-330.4 339.0181,-312.4 407.9341,-294.4 476.8501,-312.4 407.9341,-330.4"/>
<text text-anchor="middle" x="407.9341" y="-308.2" font-family="Times,serif" font-size="14.00" fill="#000000">isInitiator</text>
</g>
<!-- sendSignalingMessage&#45;&gt;isInitiator -->
<g id="edge3" class="edge">
<title>sendSignalingMessage&#45;&gt;isInitiator</title>
<path fill="none" stroke="#000000" d="M407.9341,-367.7328C407.9341,-359.1572 407.9341,-349.4979 407.9341,-340.6783"/>
<polygon fill="#000000" stroke="#000000" points="411.4342,-340.4662 407.9341,-330.4662 404.4342,-340.4663 411.4342,-340.4662"/>
</g>
<!-- sendMessage_http -->
<g id="node6" class="node">
<title>sendMessage_http</title>
<polygon fill="none" stroke="#000000" points="57.1237,-191.5 57.1237,-241.1 418.7445,-241.1 418.7445,-191.5 57.1237,-191.5"/>
<text text-anchor="middle" x="237.9341" y="-224.5" font-family="Times,serif" font-size="14.00" fill="#000000">ARDAppEngineClient</text>
<polyline fill="none" stroke="#000000" points="57.1237,-216.3 418.7445,-216.3 "/>
<text text-anchor="middle" x="237.9341" y="-199.7" font-family="Times,serif" font-size="14.00" fill="#000000">&#45; (void)sendMessage:forRoomId:clientId:completionHandler:</text>
</g>
<!-- isInitiator&#45;&gt;sendMessage_http -->
<g id="edge4" class="edge">
<title>isInitiator:w&#45;&gt;sendMessage_http</title>
<path fill="none" stroke="#000000" d="M338.9341,-312.4C301.6967,-312.4 272.7385,-277.6915 255.5574,-249.9923"/>
<polygon fill="#000000" stroke="#000000" points="258.5111,-248.1114 250.3974,-241.2983 252.4915,-251.6841 258.5111,-248.1114"/>
<text text-anchor="middle" x="288.155" y="-263.8" font-family="Times,serif" font-size="14.00" fill="#000000">YES</text>
</g>
<!-- sendMessage_ws -->
<g id="node8" class="node">
<title>sendMessage_ws</title>
<polygon fill="none" stroke="#000000" points="465.5652,-191.5 465.5652,-241.1 622.303,-241.1 622.303,-191.5 465.5652,-191.5"/>
<text text-anchor="middle" x="543.9341" y="-224.5" font-family="Times,serif" font-size="14.00" fill="#000000">ARDWebSocketChannel</text>
<polyline fill="none" stroke="#000000" points="465.5652,-216.3 622.303,-216.3 "/>
<text text-anchor="middle" x="543.9341" y="-199.7" font-family="Times,serif" font-size="14.00" fill="#000000">&#45; (void)sendMessage:</text>
</g>
<!-- isInitiator&#45;&gt;sendMessage_ws -->
<g id="edge5" class="edge">
<title>isInitiator:e&#45;&gt;sendMessage_ws</title>
<path fill="none" stroke="#000000" d="M476.9341,-312.4C507.8186,-312.4 525.6376,-278.5871 535.0244,-251.075"/>
<polygon fill="#000000" stroke="#000000" points="538.438,-251.888 538.1098,-241.2983 531.7625,-249.7813 538.438,-251.888"/>
<text text-anchor="middle" x="542.0407" y="-263.8" font-family="Times,serif" font-size="14.00" fill="#000000">NO</text>
</g>
<!-- sendAsyncRequest -->
<g id="node7" class="node">
<title>sendAsyncRequest</title>
<polygon fill="none" stroke="#000000" points="39.555,-103.9 39.555,-153.5 320.3132,-153.5 320.3132,-103.9 39.555,-103.9"/>
<text text-anchor="middle" x="179.9341" y="-136.9" font-family="Times,serif" font-size="14.00" fill="#000000">NSURLConnection</text>
<polyline fill="none" stroke="#000000" points="39.555,-128.7 320.3132,-128.7 "/>
<text text-anchor="middle" x="179.9341" y="-112.1" font-family="Times,serif" font-size="14.00" fill="#000000">&#45; (void)sendAsyncRequest:completionHandler:</text>
</g>
<!-- sendMessage_http&#45;&gt;sendAsyncRequest -->
<g id="edge6" class="edge">
<title>sendMessage_http&#45;&gt;sendAsyncRequest</title>
<path fill="none" stroke="#000000" d="M221.4688,-191.4317C215.4074,-182.277 208.4415,-171.7559 201.9678,-161.9784"/>
<polygon fill="#000000" stroke="#000000" points="204.8796,-160.0363 196.4406,-153.6305 199.0429,-163.9008 204.8796,-160.0363"/>
</g>
<!-- kARDSignalingChannelStateRegistered -->
<g id="node9" class="node">
<title>kARDSignalingChannelStateRegistered</title>
<polygon fill="none" stroke="#000000" points="572.9341,-146.7 338.2606,-128.7 572.9341,-110.7 807.6076,-128.7 572.9341,-146.7"/>
<text text-anchor="middle" x="572.9341" y="-124.5" font-family="Times,serif" font-size="14.00" fill="#000000">kARDSignalingChannelStateRegistered</text>
</g>
<!-- sendMessage_ws&#45;&gt;kARDSignalingChannelStateRegistered -->
<g id="edge7" class="edge">
<title>sendMessage_ws&#45;&gt;kARDSignalingChannelStateRegistered</title>
<path fill="none" stroke="#000000" d="M552.1668,-191.4317C555.8079,-180.4331 560.1018,-167.4623 563.8375,-156.1781"/>
<polygon fill="#000000" stroke="#000000" points="567.2563,-156.9875 567.0764,-146.3942 560.6109,-154.7875 567.2563,-156.9875"/>
</g>
<!-- send -->
<g id="node10" class="node">
<title>send</title>
<polygon fill="none" stroke="#000000" points="289.1087,-.5 289.1087,-50.1 386.7595,-50.1 386.7595,-.5 289.1087,-.5"/>
<text text-anchor="middle" x="337.9341" y="-33.5" font-family="Times,serif" font-size="14.00" fill="#000000">SRWebSocket</text>
<polyline fill="none" stroke="#000000" points="289.1087,-25.3 386.7595,-25.3 "/>
<text text-anchor="middle" x="337.9341" y="-8.7" font-family="Times,serif" font-size="14.00" fill="#000000">&#45; (void)send:</text>
</g>
<!-- kARDSignalingChannelStateRegistered&#45;&gt;send -->
<g id="edge8" class="edge">
<title>kARDSignalingChannelStateRegistered:w&#45;&gt;send</title>
<path fill="none" stroke="#000000" d="M337.9341,-128.7C330.9488,-128.7 332.4577,-90.4765 334.714,-60.5095"/>
<polygon fill="#000000" stroke="#000000" points="338.2196,-60.5781 335.5305,-50.3303 331.242,-60.0183 338.2196,-60.5781"/>
<text text-anchor="middle" x="348.155" y="-72.8" font-family="Times,serif" font-size="14.00" fill="#000000">YES</text>
</g>
<!-- sendAsyncPostToURL -->
<g id="node11" class="node">
<title>sendAsyncPostToURL</title>
<polygon fill="none" stroke="#000000" points="628.67,-.5 628.67,-50.1 987.1982,-50.1 987.1982,-.5 628.67,-.5"/>
<text text-anchor="middle" x="807.9341" y="-33.5" font-family="Times,serif" font-size="14.00" fill="#000000">NSURLConnection</text>
<polyline fill="none" stroke="#000000" points="628.67,-25.3 987.1982,-25.3 "/>
<text text-anchor="middle" x="807.9341" y="-8.7" font-family="Times,serif" font-size="14.00" fill="#000000">&#45; (void)sendAsyncPostToURL:withData:completionHandler:</text>
</g>
<!-- kARDSignalingChannelStateRegistered&#45;&gt;sendAsyncPostToURL -->
<g id="edge9" class="edge">
<title>kARDSignalingChannelStateRegistered:e&#45;&gt;sendAsyncPostToURL</title>
<path fill="none" stroke="#000000" d="M807.9341,-128.7C835.9972,-128.7 829.7864,-90.142 820.6962,-60.1174"/>
<polygon fill="#000000" stroke="#000000" points="823.9422,-58.7783 817.5484,-50.3303 817.2784,-60.9217 823.9422,-58.7783"/>
<text text-anchor="middle" x="836.0407" y="-72.8" font-family="Times,serif" font-size="14.00" fill="#000000">NO</text>
</g>
</g>
</svg>
