<?xml version="1.0" encoding="UTF-8" standalone="no"?>
<!DOCTYPE svg PUBLIC "-//W3C//DTD SVG 1.1//EN"
 "http://www.w3.org/Graphics/SVG/1.1/DTD/svg11.dtd">
<!-- Generated by graphviz version 2.40.1 (20161225.0304)
 -->
<!-- Title: %0 Pages: 1 -->
<svg width="956pt" height="896pt"
 viewBox="0.00 0.00 955.64 895.60" xmlns="http://www.w3.org/2000/svg" xmlns:xlink="http://www.w3.org/1999/xlink">
<g id="graph0" class="graph" transform="scale(1 1) rotate(0) translate(4 891.6)">
<title>%0</title>
<polygon fill="#ffffff" stroke="transparent" points="-4,4 -4,-891.6 951.6432,-891.6 951.6432,4 -4,4"/>
<!-- startSignalingIfReady -->
<g id="node1" class="node">
<title>startSignalingIfReady</title>
<polygon fill="none" stroke="#000000" points="132.7644,-837.5 132.7644,-887.1 313.9938,-887.1 313.9938,-837.5 132.7644,-837.5"/>
<text text-anchor="middle" x="223.3791" y="-870.5" font-family="Times,serif" font-size="14.00" fill="#000000">ARDAppClient</text>
<polyline fill="none" stroke="#000000" points="132.7644,-862.3 313.9938,-862.3 "/>
<text text-anchor="middle" x="223.3791" y="-845.7" font-family="Times,serif" font-size="14.00" fill="#000000">&#45; (void)startSignalingIfReady</text>
</g>
<!-- offerForConstraints -->
<g id="node2" class="node">
<title>offerForConstraints</title>
<polygon fill="none" stroke="#000000" points="81.0568,-749.9 81.0568,-799.5 365.7014,-799.5 365.7014,-749.9 81.0568,-749.9"/>
<text text-anchor="middle" x="223.3791" y="-782.9" font-family="Times,serif" font-size="14.00" fill="#000000">RTCPeerConnection</text>
<polyline fill="none" stroke="#000000" points="81.0568,-774.7 365.7014,-774.7 "/>
<text text-anchor="middle" x="223.3791" y="-758.1" font-family="Times,serif" font-size="14.00" fill="#000000">&#45; (void)offerForConstraints:completionHandler:</text>
</g>
<!-- startSignalingIfReady&#45;&gt;offerForConstraints -->
<g id="edge1" class="edge">
<title>startSignalingIfReady&#45;&gt;offerForConstraints</title>
<path fill="none" stroke="#000000" d="M223.3791,-837.4317C223.3791,-828.8318 223.3791,-819.0262 223.3791,-809.7639"/>
<polygon fill="#000000" stroke="#000000" points="226.8792,-809.6305 223.3791,-799.6305 219.8792,-809.6305 226.8792,-809.6305"/>
</g>
<!-- didCreateSessionDescription -->
<g id="node3" class="node">
<title>didCreateSessionDescription</title>
<polygon fill="none" stroke="#000000" points="49.1844,-646.5 49.1844,-696.1 397.5738,-696.1 397.5738,-646.5 49.1844,-646.5"/>
<text text-anchor="middle" x="223.3791" y="-679.5" font-family="Times,serif" font-size="14.00" fill="#000000">ARDAppClient</text>
<polyline fill="none" stroke="#000000" points="49.1844,-671.3 397.5738,-671.3 "/>
<text text-anchor="middle" x="223.3791" y="-654.7" font-family="Times,serif" font-size="14.00" fill="#000000">&#45; (void)peerConnection:didCreateSessionDescription:error:</text>
</g>
<!-- offerForConstraints&#45;&gt;didCreateSessionDescription -->
<g id="edge2" class="edge">
<title>offerForConstraints&#45;&gt;didCreateSessionDescription</title>
<path fill="none" stroke="#000000" d="M223.3791,-749.6697C223.3791,-736.8102 223.3791,-720.9191 223.3791,-706.8152"/>
<polygon fill="#000000" stroke="#000000" points="226.8792,-706.4581 223.3791,-696.4581 219.8792,-706.4582 226.8792,-706.4581"/>
<text text-anchor="middle" x="246.6989" y="-718.8" font-family="Times,serif" font-size="14.00" fill="#000000">callback</text>
</g>
<!-- setLocalDescription -->
<g id="node4" class="node">
<title>setLocalDescription</title>
<polygon fill="none" stroke="#000000" points="79.8955,-558.9 79.8955,-608.5 366.8627,-608.5 366.8627,-558.9 79.8955,-558.9"/>
<text text-anchor="middle" x="223.3791" y="-591.9" font-family="Times,serif" font-size="14.00" fill="#000000">RTCPeerConnection</text>
<polyline fill="none" stroke="#000000" points="79.8955,-583.7 366.8627,-583.7 "/>
<text text-anchor="middle" x="223.3791" y="-567.1" font-family="Times,serif" font-size="14.00" fill="#000000">&#45; (void)setLocalDescription:completionHandler:</text>
</g>
<!-- didCreateSessionDescription&#45;&gt;setLocalDescription -->
<g id="edge3" class="edge">
<title>didCreateSessionDescription&#45;&gt;setLocalDescription</title>
<path fill="none" stroke="#000000" d="M223.3791,-646.4317C223.3791,-637.8318 223.3791,-628.0262 223.3791,-618.7639"/>
<polygon fill="#000000" stroke="#000000" points="226.8792,-618.6305 223.3791,-608.6305 219.8792,-618.6305 226.8792,-618.6305"/>
</g>
<!-- didGenerateIceCandidate -->
<g id="node5" class="node">
<title>didGenerateIceCandidate</title>
<polygon fill="none" stroke="#000000" points="217.8548,-455.5 217.8548,-505.1 514.9034,-505.1 514.9034,-455.5 217.8548,-455.5"/>
<text text-anchor="middle" x="366.3791" y="-488.5" font-family="Times,serif" font-size="14.00" fill="#000000">ARDAppClient</text>
<polyline fill="none" stroke="#000000" points="217.8548,-480.3 514.9034,-480.3 "/>
<text text-anchor="middle" x="366.3791" y="-463.7" font-family="Times,serif" font-size="14.00" fill="#000000">&#45; (void)peerConnection:didGenerateIceCandidate:</text>
</g>
<!-- setLocalDescription&#45;&gt;didGenerateIceCandidate -->
<g id="edge4" class="edge">
<title>setLocalDescription:e&#45;&gt;didGenerateIceCandidate</title>
<path fill="none" stroke="#000000" d="M366.3791,-595.7C399.0193,-595.7 390.1151,-548.9627 379.3248,-514.9751"/>
<polygon fill="#000000" stroke="#000000" points="382.5957,-513.7197 376.1124,-505.3401 375.9551,-515.9338 382.5957,-513.7197"/>
<text text-anchor="middle" x="409.6989" y="-527.8" font-family="Times,serif" font-size="14.00" fill="#000000">delegate</text>
</g>
<!-- sendSignalingMessage -->
<g id="node6" class="node">
<title>sendSignalingMessage</title>
<polygon fill="none" stroke="#000000" points="271.0947,-367.9 271.0947,-417.5 461.6635,-417.5 461.6635,-367.9 271.0947,-367.9"/>
<text text-anchor="middle" x="366.3791" y="-400.9" font-family="Times,serif" font-size="14.00" fill="#000000">ARDAppClient</text>
<polyline fill="none" stroke="#000000" points="271.0947,-392.7 461.6635,-392.7 "/>
<text text-anchor="middle" x="366.3791" y="-376.1" font-family="Times,serif" font-size="14.00" fill="#000000">&#45; (void)sendSignalingMessage:</text>
</g>
<!-- didGenerateIceCandidate&#45;&gt;sendSignalingMessage -->
<g id="edge5" class="edge">
<title>didGenerateIceCandidate&#45;&gt;sendSignalingMessage</title>
<path fill="none" stroke="#000000" d="M366.3791,-455.4317C366.3791,-446.8318 366.3791,-437.0262 366.3791,-427.7639"/>
<polygon fill="#000000" stroke="#000000" points="369.8792,-427.6305 366.3791,-417.6305 362.8792,-427.6305 369.8792,-427.6305"/>
</g>
<!-- _isInitiator -->
<g id="node7" class="node">
<title>_isInitiator</title>
<polygon fill="none" stroke="#000000" points="366.3791,-330.4 290.8067,-312.4 366.3791,-294.4 441.9515,-312.4 366.3791,-330.4"/>
<text text-anchor="middle" x="366.3791" y="-308.2" font-family="Times,serif" font-size="14.00" fill="#000000">_isInitiator</text>
</g>
<!-- sendSignalingMessage&#45;&gt;_isInitiator -->
<g id="edge6" class="edge">
<title>sendSignalingMessage&#45;&gt;_isInitiator</title>
<path fill="none" stroke="#000000" d="M366.3791,-367.7328C366.3791,-359.1572 366.3791,-349.4979 366.3791,-340.6783"/>
<polygon fill="#000000" stroke="#000000" points="369.8792,-340.4662 366.3791,-330.4662 362.8792,-340.4663 369.8792,-340.4662"/>
</g>
<!-- sendMessage_http -->
<g id="node8" class="node">
<title>sendMessage_http</title>
<polygon fill="none" stroke="#000000" points="17.5687,-191.5 17.5687,-241.1 379.1895,-241.1 379.1895,-191.5 17.5687,-191.5"/>
<text text-anchor="middle" x="198.3791" y="-224.5" font-family="Times,serif" font-size="14.00" fill="#000000">ARDAppEngineClient</text>
<polyline fill="none" stroke="#000000" points="17.5687,-216.3 379.1895,-216.3 "/>
<text text-anchor="middle" x="198.3791" y="-199.7" font-family="Times,serif" font-size="14.00" fill="#000000">&#45; (void)sendMessage:forRoomId:clientId:completionHandler:</text>
</g>
<!-- _isInitiator&#45;&gt;sendMessage_http -->
<g id="edge7" class="edge">
<title>_isInitiator:w&#45;&gt;sendMessage_http</title>
<path fill="none" stroke="#000000" d="M290.3791,-312.4C254.9984,-312.4 229.0188,-277.9913 213.8576,-250.3524"/>
<polygon fill="#000000" stroke="#000000" points="216.8621,-248.5445 209.1328,-241.2983 210.6563,-251.783 216.8621,-248.5445"/>
<text text-anchor="middle" x="243.6" y="-263.8" font-family="Times,serif" font-size="14.00" fill="#000000">YES</text>
</g>
<!-- sendMessage_ws -->
<g id="node10" class="node">
<title>sendMessage_ws</title>
<polygon fill="none" stroke="#000000" points="426.0102,-191.5 426.0102,-241.1 582.748,-241.1 582.748,-191.5 426.0102,-191.5"/>
<text text-anchor="middle" x="504.3791" y="-224.5" font-family="Times,serif" font-size="14.00" fill="#000000">ARDWebSocketChannel</text>
<polyline fill="none" stroke="#000000" points="426.0102,-216.3 582.748,-216.3 "/>
<text text-anchor="middle" x="504.3791" y="-199.7" font-family="Times,serif" font-size="14.00" fill="#000000">&#45; (void)sendMessage:</text>
</g>
<!-- _isInitiator&#45;&gt;sendMessage_ws -->
<g id="edge8" class="edge">
<title>_isInitiator:e&#45;&gt;sendMessage_ws</title>
<path fill="none" stroke="#000000" d="M442.3791,-312.4C472.5291,-312.4 488.7257,-278.5871 496.9141,-251.075"/>
<polygon fill="#000000" stroke="#000000" points="500.3259,-251.8668 499.5795,-241.2983 493.5724,-250.0255 500.3259,-251.8668"/>
<text text-anchor="middle" x="504.4857" y="-263.8" font-family="Times,serif" font-size="14.00" fill="#000000">NO</text>
</g>
<!-- sendAsyncRequest -->
<g id="node9" class="node">
<title>sendAsyncRequest</title>
<polygon fill="none" stroke="#000000" points="0,-103.9 0,-153.5 280.7582,-153.5 280.7582,-103.9 0,-103.9"/>
<text text-anchor="middle" x="140.3791" y="-136.9" font-family="Times,serif" font-size="14.00" fill="#000000">NSURLConnection</text>
<polyline fill="none" stroke="#000000" points="0,-128.7 280.7582,-128.7 "/>
<text text-anchor="middle" x="140.3791" y="-112.1" font-family="Times,serif" font-size="14.00" fill="#000000">&#45; (void)sendAsyncRequest:completionHandler:</text>
</g>
<!-- sendMessage_http&#45;&gt;sendAsyncRequest -->
<g id="edge9" class="edge">
<title>sendMessage_http&#45;&gt;sendAsyncRequest</title>
<path fill="none" stroke="#000000" d="M181.9138,-191.4317C175.8524,-182.277 168.8865,-171.7559 162.4128,-161.9784"/>
<polygon fill="#000000" stroke="#000000" points="165.3246,-160.0363 156.8856,-153.6305 159.4879,-163.9008 165.3246,-160.0363"/>
</g>
<!-- kARDSignalingChannelStateRegistered -->
<g id="node11" class="node">
<title>kARDSignalingChannelStateRegistered</title>
<polygon fill="none" stroke="#000000" points="533.3791,-146.7 298.7056,-128.7 533.3791,-110.7 768.0526,-128.7 533.3791,-146.7"/>
<text text-anchor="middle" x="533.3791" y="-124.5" font-family="Times,serif" font-size="14.00" fill="#000000">kARDSignalingChannelStateRegistered</text>
</g>
<!-- sendMessage_ws&#45;&gt;kARDSignalingChannelStateRegistered -->
<g id="edge10" class="edge">
<title>sendMessage_ws&#45;&gt;kARDSignalingChannelStateRegistered</title>
<path fill="none" stroke="#000000" d="M512.6118,-191.4317C516.2529,-180.4331 520.5468,-167.4623 524.2825,-156.1781"/>
<polygon fill="#000000" stroke="#000000" points="527.7013,-156.9875 527.5214,-146.3942 521.0559,-154.7875 527.7013,-156.9875"/>
</g>
<!-- send -->
<g id="node12" class="node">
<title>send</title>
<polygon fill="none" stroke="#000000" points="249.5537,-.5 249.5537,-50.1 347.2045,-50.1 347.2045,-.5 249.5537,-.5"/>
<text text-anchor="middle" x="298.3791" y="-33.5" font-family="Times,serif" font-size="14.00" fill="#000000">SRWebSocket</text>
<polyline fill="none" stroke="#000000" points="249.5537,-25.3 347.2045,-25.3 "/>
<text text-anchor="middle" x="298.3791" y="-8.7" font-family="Times,serif" font-size="14.00" fill="#000000">&#45; (void)send:</text>
</g>
<!-- kARDSignalingChannelStateRegistered&#45;&gt;send -->
<g id="edge11" class="edge">
<title>kARDSignalingChannelStateRegistered:w&#45;&gt;send</title>
<path fill="none" stroke="#000000" d="M298.3791,-128.7C291.3938,-128.7 292.9027,-90.4765 295.159,-60.5095"/>
<polygon fill="#000000" stroke="#000000" points="298.6646,-60.5781 295.9755,-50.3303 291.687,-60.0183 298.6646,-60.5781"/>
<text text-anchor="middle" x="308.6" y="-72.8" font-family="Times,serif" font-size="14.00" fill="#000000">YES</text>
</g>
<!-- sendAsyncPostToURL -->
<g id="node13" class="node">
<title>sendAsyncPostToURL</title>
<polygon fill="none" stroke="#000000" points="589.115,-.5 589.115,-50.1 947.6432,-50.1 947.6432,-.5 589.115,-.5"/>
<text text-anchor="middle" x="768.3791" y="-33.5" font-family="Times,serif" font-size="14.00" fill="#000000">NSURLConnection</text>
<polyline fill="none" stroke="#000000" points="589.115,-25.3 947.6432,-25.3 "/>
<text text-anchor="middle" x="768.3791" y="-8.7" font-family="Times,serif" font-size="14.00" fill="#000000">&#45; (void)sendAsyncPostToURL:withData:completionHandler:</text>
</g>
<!-- kARDSignalingChannelStateRegistered&#45;&gt;sendAsyncPostToURL -->
<g id="edge12" class="edge">
<title>kARDSignalingChannelStateRegistered:e&#45;&gt;sendAsyncPostToURL</title>
<path fill="none" stroke="#000000" d="M768.3791,-128.7C796.4422,-128.7 790.2314,-90.142 781.1412,-60.1174"/>
<polygon fill="#000000" stroke="#000000" points="784.3872,-58.7783 777.9934,-50.3303 777.7234,-60.9217 784.3872,-58.7783"/>
<text text-anchor="middle" x="796.4857" y="-72.8" font-family="Times,serif" font-size="14.00" fill="#000000">NO</text>
</g>
</g>
</svg>
