<svg width="911" height="882" viewBox="0 0 683.25 661.5" xmlns="http://www.w3.org/2000/svg" xmlns:xlink="http://www.w3.org/1999/xlink">
<g id="graph0" class="graph" transform="translate(217.625,555.9499969482422) scale(1)">
<polygon fill="white" stroke="transparent" points="-4,4 -4,-454.4 252,-454.4 252,4 -4,4"/>
<g id="clust1" class="cluster">
<title>cluster_ARDWebSocketChannel</title>
<polygon fill="white" stroke="black" points="8,-79.6 8,-233.8 240,-233.8 240,-79.6 8,-79.6"/>
</g>
<!-- joinRoomWithRoomId -->
<g id="node1" class="node">
<title>joinRoomWithRoomId</title>
<polygon fill="none" stroke="black" points="27.92,-366.7 27.92,-449.9 220.08,-449.9 220.08,-366.7 27.92,-366.7"/>
<text text-anchor="middle" x="124" y="-433.3" font-family="Times,serif" font-size="14.00">ARDAppEngineClient</text>
<polyline fill="none" stroke="black" points="27.92,-425.1 220.08,-425.1 "/>
<text text-anchor="middle" x="124" y="-408.5" font-family="Times,serif" font-size="14.00">- (void)joinRoomWithRoomId:</text>
<text text-anchor="middle" x="124" y="-391.7" font-family="Times,serif" font-size="14.00">isLoopback:</text>
<text text-anchor="middle" x="124" y="-374.9" font-family="Times,serif" font-size="14.00">completionHandler:</text>
</g>
<!-- registerWithColliderIfReady -->
<g id="node2" class="node">
<title>registerWithColliderIfReady</title>
<polygon fill="none" stroke="black" points="14.34,-263.3 14.34,-312.9 233.66,-312.9 233.66,-263.3 14.34,-263.3"/>
<text text-anchor="middle" x="124" y="-296.3" font-family="Times,serif" font-size="14.00">ARDAppClient</text>
<polyline fill="none" stroke="black" points="14.34,-288.1 233.66,-288.1 "/>
<text text-anchor="middle" x="124" y="-271.5" font-family="Times,serif" font-size="14.00">- (void)registerWithColliderIfReady</text>
</g>
<!-- joinRoomWithRoomId&#45;&gt;registerWithColliderIfReady -->
<g id="edge1" class="edge">
<title>joinRoomWithRoomId-&gt;registerWithColliderIfReady</title>
<path fill="none" stroke="black" d="M124,-366.62C124,-352.5 124,-336.82 124,-323.28"/>
<polygon fill="black" stroke="black" points="127.5,-322.94 124,-312.94 120.5,-322.94 127.5,-322.94"/>
<text text-anchor="middle" x="147.32" y="-335.6" font-family="Times,serif" font-size="14.00">callback</text>
</g>
<!-- registerForRoomId -->
<g id="node3" class="node">
<title>registerForRoomId</title>
<polygon fill="none" stroke="black" points="15.88,-175.7 15.88,-225.3 232.12,-225.3 232.12,-175.7 15.88,-175.7"/>
<text text-anchor="middle" x="124" y="-208.7" font-family="Times,serif" font-size="14.00">ARDWebSocketChannel</text>
<polyline fill="none" stroke="black" points="15.88,-200.5 232.12,-200.5 "/>
<text text-anchor="middle" x="124" y="-183.9" font-family="Times,serif" font-size="14.00">- (void)registerForRoomId:clientId:</text>
</g>
<!-- registerWithColliderIfReady&#45;&gt;registerForRoomId -->
<g id="edge2" class="edge">
<title>registerWithColliderIfReady-&gt;registerForRoomId</title>
<path fill="none" stroke="black" d="M124,-263.26C124,-254.7 124,-244.88 124,-235.63"/>
<polygon fill="black" stroke="black" points="127.5,-235.51 124,-225.51 120.5,-235.51 127.5,-235.51"/>
</g>
<!-- registerWithCollider -->
<g id="node4" class="node">
<title>registerWithCollider</title>
<polygon fill="none" stroke="black" points="36.88,-88.1 36.88,-137.7 211.12,-137.7 211.12,-88.1 36.88,-88.1"/>
<text text-anchor="middle" x="124" y="-121.1" font-family="Times,serif" font-size="14.00">ARDWebSocketChannel</text>
<polyline fill="none" stroke="black" points="36.88,-112.9 211.12,-112.9 "/>
<text text-anchor="middle" x="124" y="-96.3" font-family="Times,serif" font-size="14.00">- (void)registerWithCollider</text>
</g>
<!-- registerForRoomId&#45;&gt;registerWithCollider -->
<g id="edge3" class="edge">
<title>registerForRoomId-&gt;registerWithCollider</title>
<path fill="none" stroke="black" d="M124,-175.66C124,-167.1 124,-157.28 124,-148.03"/>
<polygon fill="black" stroke="black" points="127.5,-147.91 124,-137.91 120.5,-147.91 127.5,-147.91"/>
</g>
<!-- send -->
<g id="node5" class="node">
<title>send</title>
<polygon fill="none" stroke="black" points="75.17,-0.5 75.17,-50.1 172.83,-50.1 172.83,-0.5 75.17,-0.5"/>
<text text-anchor="middle" x="124" y="-33.5" font-family="Times,serif" font-size="14.00">SRWebSocket</text>
<polyline fill="none" stroke="black" points="75.17,-25.3 172.83,-25.3 "/>
<text text-anchor="middle" x="124" y="-8.7" font-family="Times,serif" font-size="14.00">- (void)send:</text>
</g>
<!-- registerWithCollider&#45;&gt;send -->
<g id="edge4" class="edge">
<title>registerWithCollider-&gt;send</title>
<path fill="none" stroke="black" d="M124,-88.06C124,-79.5 124,-69.68 124,-60.43"/>
<polygon fill="black" stroke="black" points="127.5,-60.31 124,-50.31 120.5,-60.31 127.5,-60.31"/>
</g>
</g>
</svg>