<?xml version="1.0" encoding="UTF-8" standalone="no"?>
<!DOCTYPE svg PUBLIC "-//W3C//DTD SVG 1.1//EN"
 "http://www.w3.org/Graphics/SVG/1.1/DTD/svg11.dtd">
<!-- Generated by graphviz version 2.40.1 (20161225.0304)
 -->
<!-- Title: %0 Pages: 1 -->
<svg width="420pt" height="544pt"
 viewBox="0.00 0.00 420.38 544.00" xmlns="http://www.w3.org/2000/svg" xmlns:xlink="http://www.w3.org/1999/xlink">
<g id="graph0" class="graph" transform="scale(1 1) rotate(0) translate(4 540)">
<title>%0</title>
<polygon fill="#ffffff" stroke="transparent" points="-4,4 -4,-540 416.3821,-540 416.3821,4 -4,4"/>
<!-- title -->
<g id="node1" class="node">
<title>title</title>
<text text-anchor="middle" x="61.5717" y="-506.5" font-family="Times,serif" font-size="14.00" fill="#000000">发起端发送 Offer</text>
</g>
<!-- startSignalingIfReady -->
<g id="node2" class="node">
<title>startSignalingIfReady</title>
<polygon fill="none" stroke="#000000" points="140.957,-485.9 140.957,-535.5 322.1864,-535.5 322.1864,-485.9 140.957,-485.9"/>
<text text-anchor="middle" x="231.5717" y="-518.9" font-family="Times,serif" font-size="14.00" fill="#000000">ARDAppClient</text>
<polyline fill="none" stroke="#000000" points="140.957,-510.7 322.1864,-510.7 "/>
<text text-anchor="middle" x="231.5717" y="-494.1" font-family="Times,serif" font-size="14.00" fill="#000000">&#45; (void)startSignalingIfReady</text>
</g>
<!-- offerForConstraints -->
<g id="node3" class="node">
<title>offerForConstraints</title>
<polygon fill="none" stroke="#000000" points="89.2494,-382.5 89.2494,-432.1 373.894,-432.1 373.894,-382.5 89.2494,-382.5"/>
<text text-anchor="middle" x="231.5717" y="-415.5" font-family="Times,serif" font-size="14.00" fill="#000000">RTCPeerConnection</text>
<polyline fill="none" stroke="#000000" points="89.2494,-407.3 373.894,-407.3 "/>
<text text-anchor="middle" x="231.5717" y="-390.7" font-family="Times,serif" font-size="14.00" fill="#000000">&#45; (void)offerForConstraints:completionHandler:</text>
</g>
<!-- startSignalingIfReady&#45;&gt;offerForConstraints -->
<g id="edge1" class="edge">
<title>startSignalingIfReady&#45;&gt;offerForConstraints</title>
<path fill="none" stroke="#000000" d="M231.5717,-485.6697C231.5717,-472.8102 231.5717,-456.9191 231.5717,-442.8152"/>
<polygon fill="#000000" stroke="#000000" points="235.0718,-442.4581 231.5717,-432.4581 228.0718,-442.4582 235.0718,-442.4581"/>
<text text-anchor="middle" x="279.4566" y="-454.8" font-family="Times,serif" font-size="14.00" fill="#000000">isInitiator = YES</text>
</g>
<!-- didCreateSessionDescription -->
<g id="node4" class="node">
<title>didCreateSessionDescription</title>
<polygon fill="none" stroke="#000000" points="57.377,-279.1 57.377,-328.7 405.7664,-328.7 405.7664,-279.1 57.377,-279.1"/>
<text text-anchor="middle" x="231.5717" y="-312.1" font-family="Times,serif" font-size="14.00" fill="#000000">ARDAppClient</text>
<polyline fill="none" stroke="#000000" points="57.377,-303.9 405.7664,-303.9 "/>
<text text-anchor="middle" x="231.5717" y="-287.3" font-family="Times,serif" font-size="14.00" fill="#000000">&#45; (void)peerConnection:didCreateSessionDescription:error:</text>
</g>
<!-- offerForConstraints&#45;&gt;didCreateSessionDescription -->
<g id="edge2" class="edge">
<title>offerForConstraints&#45;&gt;didCreateSessionDescription</title>
<path fill="none" stroke="#000000" d="M231.5717,-382.2697C231.5717,-369.4102 231.5717,-353.5191 231.5717,-339.4152"/>
<polygon fill="#000000" stroke="#000000" points="235.0718,-339.0581 231.5717,-329.0581 228.0718,-339.0582 235.0718,-339.0581"/>
<text text-anchor="middle" x="254.8915" y="-351.4" font-family="Times,serif" font-size="14.00" fill="#000000">callback</text>
</g>
<!-- sendSignalingMessage -->
<g id="node5" class="node">
<title>sendSignalingMessage</title>
<polygon fill="none" stroke="#000000" points="136.2873,-191.5 136.2873,-241.1 326.8561,-241.1 326.8561,-191.5 136.2873,-191.5"/>
<text text-anchor="middle" x="231.5717" y="-224.5" font-family="Times,serif" font-size="14.00" fill="#000000">ARDAppClient</text>
<polyline fill="none" stroke="#000000" points="136.2873,-216.3 326.8561,-216.3 "/>
<text text-anchor="middle" x="231.5717" y="-199.7" font-family="Times,serif" font-size="14.00" fill="#000000">&#45; (void)sendSignalingMessage:</text>
</g>
<!-- didCreateSessionDescription&#45;&gt;sendSignalingMessage -->
<g id="edge3" class="edge">
<title>didCreateSessionDescription&#45;&gt;sendSignalingMessage</title>
<path fill="none" stroke="#000000" d="M231.5717,-279.0317C231.5717,-270.4318 231.5717,-260.6262 231.5717,-251.3639"/>
<polygon fill="#000000" stroke="#000000" points="235.0718,-251.2305 231.5717,-241.2305 228.0718,-251.2305 235.0718,-251.2305"/>
</g>
<!-- sendMessage -->
<g id="node6" class="node">
<title>sendMessage</title>
<polygon fill="none" stroke="#000000" points="50.7613,-88.1 50.7613,-137.7 412.3821,-137.7 412.3821,-88.1 50.7613,-88.1"/>
<text text-anchor="middle" x="231.5717" y="-121.1" font-family="Times,serif" font-size="14.00" fill="#000000">ARDAppEngineClient</text>
<polyline fill="none" stroke="#000000" points="50.7613,-112.9 412.3821,-112.9 "/>
<text text-anchor="middle" x="231.5717" y="-96.3" font-family="Times,serif" font-size="14.00" fill="#000000">&#45; (void)sendMessage:forRoomId:clientId:completionHandler:</text>
</g>
<!-- sendSignalingMessage&#45;&gt;sendMessage -->
<g id="edge4" class="edge">
<title>sendSignalingMessage&#45;&gt;sendMessage</title>
<path fill="none" stroke="#000000" d="M231.5717,-191.2697C231.5717,-178.4102 231.5717,-162.5191 231.5717,-148.4152"/>
<polygon fill="#000000" stroke="#000000" points="235.0718,-148.0581 231.5717,-138.0581 228.0718,-148.0582 235.0718,-148.0581"/>
<text text-anchor="middle" x="279.4566" y="-160.4" font-family="Times,serif" font-size="14.00" fill="#000000">isInitiator = YES</text>
</g>
<!-- sendAsyncRequest -->
<g id="node7" class="node">
<title>sendAsyncRequest</title>
<polygon fill="none" stroke="#000000" points="91.1926,-.5 91.1926,-50.1 371.9508,-50.1 371.9508,-.5 91.1926,-.5"/>
<text text-anchor="middle" x="231.5717" y="-33.5" font-family="Times,serif" font-size="14.00" fill="#000000">NSURLConnection</text>
<polyline fill="none" stroke="#000000" points="91.1926,-25.3 371.9508,-25.3 "/>
<text text-anchor="middle" x="231.5717" y="-8.7" font-family="Times,serif" font-size="14.00" fill="#000000">&#45; (void)sendAsyncRequest:completionHandler:</text>
</g>
<!-- sendMessage&#45;&gt;sendAsyncRequest -->
<g id="edge5" class="edge">
<title>sendMessage&#45;&gt;sendAsyncRequest</title>
<path fill="none" stroke="#000000" d="M231.5717,-88.0317C231.5717,-79.4318 231.5717,-69.6262 231.5717,-60.3639"/>
<polygon fill="#000000" stroke="#000000" points="235.0718,-60.2305 231.5717,-50.2305 228.0718,-60.2305 235.0718,-60.2305"/>
</g>
</g>
</svg>
