<?xml version="1.0" encoding="UTF-8" standalone="no"?>
<!DOCTYPE svg PUBLIC "-//W3C//DTD SVG 1.1//EN"
 "http://www.w3.org/Graphics/SVG/1.1/DTD/svg11.dtd">
<!-- Generated by graphviz version 2.40.1 (20161225.0304)
 -->
<!-- Title: %0 Pages: 1 -->
<svg width="638pt" height="632pt"
 viewBox="0.00 0.00 638.35 631.60" xmlns="http://www.w3.org/2000/svg" xmlns:xlink="http://www.w3.org/1999/xlink">
<g id="graph0" class="graph" transform="scale(1 1) rotate(0) translate(4 627.6)">
<title>%0</title>
<polygon fill="#ffffff" stroke="transparent" points="-4,4 -4,-627.6 634.35,-627.6 634.35,4 -4,4"/>
<!-- title -->
<g id="node1" class="node">
<title>title</title>
<text text-anchor="middle" x="37.1606" y="-594.1" font-family="Times,serif" font-size="14.00" fill="#000000">注册房间</text>
</g>
<!-- joinRoomWithRoomId -->
<g id="node2" class="node">
<title>joinRoomWithRoomId</title>
<polygon fill="none" stroke="#000000" points="92.4947,-573.5 92.4947,-623.1 465.8265,-623.1 465.8265,-573.5 92.4947,-573.5"/>
<text text-anchor="middle" x="279.1606" y="-606.5" font-family="Times,serif" font-size="14.00" fill="#000000">ARDAppEngineClient</text>
<polyline fill="none" stroke="#000000" points="92.4947,-598.3 465.8265,-598.3 "/>
<text text-anchor="middle" x="279.1606" y="-581.7" font-family="Times,serif" font-size="14.00" fill="#000000">&#45; (void)joinRoomWithRoomId:isLoopback:completionHandler:</text>
</g>
<!-- registerWithColliderIfReady -->
<g id="node3" class="node">
<title>registerWithColliderIfReady</title>
<polygon fill="none" stroke="#000000" points="169.5031,-470.1 169.5031,-519.7 388.8181,-519.7 388.8181,-470.1 169.5031,-470.1"/>
<text text-anchor="middle" x="279.1606" y="-503.1" font-family="Times,serif" font-size="14.00" fill="#000000">ARDAppClient</text>
<polyline fill="none" stroke="#000000" points="169.5031,-494.9 388.8181,-494.9 "/>
<text text-anchor="middle" x="279.1606" y="-478.3" font-family="Times,serif" font-size="14.00" fill="#000000">&#45; (void)registerWithColliderIfReady</text>
</g>
<!-- joinRoomWithRoomId&#45;&gt;registerWithColliderIfReady -->
<g id="edge1" class="edge">
<title>joinRoomWithRoomId&#45;&gt;registerWithColliderIfReady</title>
<path fill="none" stroke="#000000" d="M279.1606,-573.2697C279.1606,-560.4102 279.1606,-544.5191 279.1606,-530.4152"/>
<polygon fill="#000000" stroke="#000000" points="282.6607,-530.0581 279.1606,-520.0581 275.6607,-530.0582 282.6607,-530.0581"/>
<text text-anchor="middle" x="302.4804" y="-542.4" font-family="Times,serif" font-size="14.00" fill="#000000">callback</text>
</g>
<!-- initWithURL -->
<g id="node4" class="node">
<title>initWithURL</title>
<polygon fill="none" stroke="#000000" points="3.8418,-382.5 3.8418,-432.1 288.4794,-432.1 288.4794,-382.5 3.8418,-382.5"/>
<text text-anchor="middle" x="146.1606" y="-415.5" font-family="Times,serif" font-size="14.00" fill="#000000">ARDWebSocketChannel</text>
<polyline fill="none" stroke="#000000" points="3.8418,-407.3 288.4794,-407.3 "/>
<text text-anchor="middle" x="146.1606" y="-390.7" font-family="Times,serif" font-size="14.00" fill="#000000">&#45; (instancetype)initWithURL:restURL:delegate:</text>
</g>
<!-- registerWithColliderIfReady&#45;&gt;initWithURL -->
<g id="edge2" class="edge">
<title>registerWithColliderIfReady&#45;&gt;initWithURL</title>
<path fill="none" stroke="#000000" d="M241.4039,-470.0317C226.2411,-460.0447 208.6095,-448.4317 192.6679,-437.9319"/>
<polygon fill="#000000" stroke="#000000" points="194.2882,-434.8081 184.0117,-432.2305 190.4378,-440.6541 194.2882,-434.8081"/>
</g>
<!-- registerForRoomId -->
<g id="node7" class="node">
<title>registerForRoomId</title>
<polygon fill="none" stroke="#000000" points="308.0494,-382.5 308.0494,-432.1 524.2718,-432.1 524.2718,-382.5 308.0494,-382.5"/>
<text text-anchor="middle" x="416.1606" y="-415.5" font-family="Times,serif" font-size="14.00" fill="#000000">ARDWebSocketChannel</text>
<polyline fill="none" stroke="#000000" points="308.0494,-407.3 524.2718,-407.3 "/>
<text text-anchor="middle" x="416.1606" y="-390.7" font-family="Times,serif" font-size="14.00" fill="#000000">&#45; (void)registerForRoomId:clientId:</text>
</g>
<!-- registerWithColliderIfReady&#45;&gt;registerForRoomId -->
<g id="edge3" class="edge">
<title>registerWithColliderIfReady&#45;&gt;registerForRoomId</title>
<path fill="none" stroke="#000000" d="M318.0528,-470.0317C333.8163,-459.9523 352.1701,-448.2165 368.7103,-437.6405"/>
<polygon fill="#000000" stroke="#000000" points="370.6316,-440.5663 377.1711,-432.2305 366.8607,-434.6689 370.6316,-440.5663"/>
</g>
<!-- open -->
<g id="node5" class="node">
<title>open</title>
<polygon fill="none" stroke="#000000" points="87.3352,-294.9 87.3352,-344.5 184.986,-344.5 184.986,-294.9 87.3352,-294.9"/>
<text text-anchor="middle" x="136.1606" y="-327.9" font-family="Times,serif" font-size="14.00" fill="#000000">SRWebSocket</text>
<polyline fill="none" stroke="#000000" points="87.3352,-319.7 184.986,-319.7 "/>
<text text-anchor="middle" x="136.1606" y="-303.1" font-family="Times,serif" font-size="14.00" fill="#000000">&#45; (void)open</text>
</g>
<!-- initWithURL&#45;&gt;open -->
<g id="edge4" class="edge">
<title>initWithURL&#45;&gt;open</title>
<path fill="none" stroke="#000000" d="M143.3217,-382.4317C142.34,-373.8318 141.2207,-364.0262 140.1633,-354.7639"/>
<polygon fill="#000000" stroke="#000000" points="143.6182,-354.169 139.0065,-344.6305 136.6634,-354.963 143.6182,-354.169"/>
</g>
<!-- webSocketDidOpen -->
<g id="node6" class="node">
<title>webSocketDidOpen</title>
<polygon fill="none" stroke="#000000" points="82.6581,-191.5 82.6581,-241.1 257.6631,-241.1 257.6631,-191.5 82.6581,-191.5"/>
<text text-anchor="middle" x="170.1606" y="-224.5" font-family="Times,serif" font-size="14.00" fill="#000000">ARDWebSocketChannel</text>
<polyline fill="none" stroke="#000000" points="82.6581,-216.3 257.6631,-216.3 "/>
<text text-anchor="middle" x="170.1606" y="-199.7" font-family="Times,serif" font-size="14.00" fill="#000000">&#45; (void)webSocketDidOpen:</text>
</g>
<!-- open&#45;&gt;webSocketDidOpen -->
<g id="edge5" class="edge">
<title>open:e&#45;&gt;webSocketDidOpen</title>
<path fill="none" stroke="#000000" d="M185.1606,-331.7C218.2166,-331.7 202.8912,-284.5606 187.5254,-250.5382"/>
<polygon fill="#000000" stroke="#000000" points="190.6327,-248.9202 183.2305,-241.3401 184.29,-251.8818 190.6327,-248.9202"/>
<text text-anchor="middle" x="220.4804" y="-263.8" font-family="Times,serif" font-size="14.00" fill="#000000">delegate</text>
</g>
<!-- registerWithCollider -->
<g id="node8" class="node">
<title>registerWithCollider</title>
<polygon fill="none" stroke="#000000" points="205.0466,-88.1 205.0466,-137.7 379.2746,-137.7 379.2746,-88.1 205.0466,-88.1"/>
<text text-anchor="middle" x="292.1606" y="-121.1" font-family="Times,serif" font-size="14.00" fill="#000000">ARDWebSocketChannel</text>
<polyline fill="none" stroke="#000000" points="205.0466,-112.9 379.2746,-112.9 "/>
<text text-anchor="middle" x="292.1606" y="-96.3" font-family="Times,serif" font-size="14.00" fill="#000000">&#45; (void)registerWithCollider</text>
</g>
<!-- webSocketDidOpen&#45;&gt;registerWithCollider -->
<g id="edge6" class="edge">
<title>webSocketDidOpen&#45;&gt;registerWithCollider</title>
<path fill="none" stroke="#000000" d="M163.9479,-191.2041C162.5356,-179.5807 163.1475,-166.1704 170.1918,-156.2 174.2472,-150.4601 183.6033,-144.9399 195.4275,-139.8748"/>
<polygon fill="#000000" stroke="#000000" points="196.9126,-143.0507 204.9037,-136.0941 194.3186,-136.549 196.9126,-143.0507"/>
<text text-anchor="middle" x="287.145" y="-160.4" font-family="Times,serif" font-size="14.00" fill="#000000">roomId.length &gt; 0 and clientId.length &gt; 0</text>
</g>
<!-- registerForRoomId&#45;&gt;registerWithCollider -->
<g id="edge7" class="edge">
<title>registerForRoomId&#45;&gt;registerWithCollider</title>
<path fill="none" stroke="#000000" d="M422.8246,-382.3301C434.2307,-333.6561 451.7712,-224.8544 402.1606,-156.2 398.1224,-150.6117 393.2499,-145.7445 387.8314,-141.5052"/>
<polygon fill="#000000" stroke="#000000" points="389.7433,-138.5716 379.5358,-135.7327 385.745,-144.3174 389.7433,-138.5716"/>
<text text-anchor="middle" x="532.7553" y="-263.8" font-family="Times,serif" font-size="14.00" fill="#000000">kARDSignalingChannelStateOpen</text>
</g>
<!-- send -->
<g id="node9" class="node">
<title>send</title>
<polygon fill="none" stroke="#000000" points="243.3352,-.5 243.3352,-50.1 340.986,-50.1 340.986,-.5 243.3352,-.5"/>
<text text-anchor="middle" x="292.1606" y="-33.5" font-family="Times,serif" font-size="14.00" fill="#000000">SRWebSocket</text>
<polyline fill="none" stroke="#000000" points="243.3352,-25.3 340.986,-25.3 "/>
<text text-anchor="middle" x="292.1606" y="-8.7" font-family="Times,serif" font-size="14.00" fill="#000000">&#45; (void)send:</text>
</g>
<!-- registerWithCollider&#45;&gt;send -->
<g id="edge8" class="edge">
<title>registerWithCollider&#45;&gt;send</title>
<path fill="none" stroke="#000000" d="M292.1606,-88.0317C292.1606,-79.4318 292.1606,-69.6262 292.1606,-60.3639"/>
<polygon fill="#000000" stroke="#000000" points="295.6607,-60.2305 292.1606,-50.2305 288.6607,-60.2305 295.6607,-60.2305"/>
</g>
</g>
</svg>
